<?xml version="1.0" encoding="utf-8"?>
<!-- Generator: Adobe Illustrator 16.0.3, SVG Export Plug-In . SVG Version: 6.00 Build 0)  -->
<!DOCTYPE svg PUBLIC "-//W3C//DTD SVG 1.1//EN" "http://www.w3.org/Graphics/SVG/1.1/DTD/svg11.dtd">
<svg version="1.1" id="PRINT" xmlns="http://www.w3.org/2000/svg" xmlns:xlink="http://www.w3.org/1999/xlink" x="0px" y="0px"
	 width="612.288px" height="184.326px" viewBox="0 0 612.288 184.326" enable-background="new 0 0 612.288 184.326"
	 xml:space="preserve">
<g>
	<g>
		<rect fill="#69C3A5" width="612.288" height="859.401"/>
		<g>
			<polygon fill="#FFFFFF" points="565.254,361.232 518.22,361.232 471.186,361.232 424.152,361.232 377.118,361.232 
				330.084,361.232 283.05,361.232 236.017,361.232 188.982,361.232 141.949,361.232 94.915,361.232 47.88,361.232 0,361.232 
				0,859.401 612.288,859.401 612.288,361.232 			"/>
			<polygon fill="#FFFFFF" points="493.254,184.326 540.288,184.565 516.646,161.944 			"/>
			<polygon fill="#FFFFFF" points="455.917,184.326 502.951,184.565 479.31,161.944 			"/>
			<polygon fill="#FFFFFF" points="413.831,184.326 460.865,184.565 437.224,161.944 			"/>
			<polygon fill="#FFFFFF" points="376.432,184.326 423.465,184.565 399.823,161.944 			"/>
			<polygon fill="#FFFFFF" points="341.964,184.326 388.998,184.565 365.355,161.944 			"/>
			<polygon fill="#FFFFFF" points="307.065,184.326 354.1,184.565 330.458,161.944 			"/>
			<polygon fill="#FFFFFF" points="273.828,184.326 320.861,184.565 297.22,161.944 			"/>
			<polygon fill="#FFFFFF" points="238.893,184.326 285.926,184.565 262.284,161.944 			"/>
			<polygon fill="#FFFFFF" points="201.791,184.326 248.825,184.565 225.183,161.944 			"/>
			<polygon fill="#FFFFFF" points="160.031,184.326 207.065,184.565 183.423,161.944 			"/>
			<polygon fill="#FFFFFF" points="121.555,184.326 168.589,184.565 144.947,161.944 			"/>
			<polygon fill="#FFFFFF" points="82.521,184.326 129.555,184.565 105.913,161.944 			"/>
			<polygon fill="#FFFFFF" points="43.735,184.326 90.769,184.565 67.127,161.944 			"/>
		</g>
	</g>
	<g>
		<path fill="#FFFFFF" d="M21.983,61.078h-0.231C9.739,61.078,0,51.34,0,39.326V0h43.735v39.326
			C43.735,51.34,33.996,61.078,21.983,61.078z"/>
		<path fill="#DB424A" d="M65.718,61.078h-0.231c-12.013,0-21.752-9.738-21.752-21.752V0H87.47v39.326
			C87.47,51.34,77.731,61.078,65.718,61.078z"/>
		<path fill="#FFFFFF" d="M109.453,61.078h-0.231c-12.013,0-21.752-9.738-21.752-21.752V0h43.735v39.326
			C131.205,51.34,121.466,61.078,109.453,61.078z"/>
		<path fill="#DB424A" d="M153.188,61.078h-0.231c-12.013,0-21.752-9.738-21.752-21.752V0h43.735v39.326
			C174.939,51.34,165.201,61.078,153.188,61.078z"/>
		<path fill="#FFFFFF" d="M196.922,61.078h-0.231c-12.013,0-21.752-9.738-21.752-21.752V0h43.735v39.326
			C218.674,51.34,208.936,61.078,196.922,61.078z"/>
		<path fill="#DB424A" d="M240.657,61.078h-0.231c-12.013,0-21.752-9.738-21.752-21.752V0h43.735v39.326
			C262.409,51.34,252.67,61.078,240.657,61.078z"/>
		<path fill="#FFFFFF" d="M284.392,61.078h-0.231c-12.014,0-21.752-9.738-21.752-21.752V0h43.735v39.326
			C306.144,51.34,296.405,61.078,284.392,61.078z"/>
		<path fill="#DB424A" d="M328.127,61.078h-0.231c-12.013,0-21.751-9.738-21.751-21.752V0h43.735v39.326
			C349.879,51.34,340.14,61.078,328.127,61.078z"/>
		<path fill="#FFFFFF" d="M371.861,61.078h-0.23c-12.014,0-21.752-9.738-21.752-21.752V0h43.734v39.326
			C393.613,51.34,383.875,61.078,371.861,61.078z"/>
		<path fill="#DB424A" d="M415.597,61.078h-0.231c-12.013,0-21.752-9.738-21.752-21.752V0h43.735v39.326
			C437.349,51.34,427.609,61.078,415.597,61.078z"/>
		<path fill="#FFFFFF" d="M459.331,61.078h-0.23c-12.014,0-21.752-9.738-21.752-21.752V0h43.734v39.326
			C481.083,51.34,471.345,61.078,459.331,61.078z"/>
		<path fill="#DB424A" d="M503.066,61.078h-0.231c-12.013,0-21.752-9.738-21.752-21.752V0h43.735v39.326
			C524.818,51.34,515.079,61.078,503.066,61.078z"/>
		<path fill="#FFFFFF" d="M546.801,61.078h-0.23c-12.014,0-21.752-9.738-21.752-21.752V0h43.734v39.326
			C568.553,51.34,558.814,61.078,546.801,61.078z"/>
		<path fill="#DB424A" d="M590.536,61.078h-0.231c-12.013,0-21.752-9.738-21.752-21.752V0h43.735v39.326
			C612.288,51.34,602.549,61.078,590.536,61.078z"/>
	</g>
	<g>
		<g display="none">
			<g display="inline">
				<g>
					
						<rect x="355.86" y="157.457" transform="matrix(0.1545 0.988 -0.988 0.1545 467.7567 -224.2489)" fill="#211916" width="18.082" height="7.434"/>
				</g>
				<g>
					<path fill="#9A0004" d="M238.809,172.052c0,0,1.055,8.942,7.112,8.942v3.368c0,0-12.873-3.368-12.873-11.729L238.809,172.052z"
						/>
					<path fill="#E6E3CE" d="M225.244,169.83l4.026-1.083v5.183l-4.026-1.083c-0.682-0.184-1.156-0.802-1.156-1.508l0,0
						C224.087,170.632,224.562,170.013,225.244,169.83z"/>
					<polygon fill="#C1000B" points="231.52,167.085 231.52,167.157 226.545,164.37 226.545,178.306 231.52,175.519 231.52,175.591 
						243.743,173.733 243.743,168.943 					"/>
				</g>
				<path fill="#E6E3CE" d="M411.225,179.295v72.776H198.302v-23.534c0-0.623,0.01-1.236,0.038-1.858
					c0.167-4.162,14.06-8.213,15.156-12.078c0.297-1.022,0.613-2.025,0.948-3.02c4.422-13.007,12.701-23.599,17.29-28.802
					c1.979-2.239,3.271-3.484,3.271-3.484H411.225z"/>
				<path fill="#C3DFED" d="M266.128,186.96v20.44c0,2.313-1.867,4.181-4.181,4.181h-47.504
					c4.422-13.007,12.701-23.599,17.29-28.802h30.214c0.297,0,0.595,0.028,0.882,0.093
					C264.716,183.271,266.128,184.953,266.128,186.96z"/>
				<path fill="#E6E3CE" d="M303.991,188.465v62.872c0,3.14-2.555,5.695-5.695,5.695h-18.35c-3.14,0-5.686-2.555-5.686-5.695
					v-62.872c0-3.14,2.546-5.686,5.686-5.686h18.35C301.436,182.779,303.991,185.325,303.991,188.465z"/>
				<path fill="#E04098" d="M303.991,226.679v24.658c0,3.14-2.555,5.695-5.695,5.695h-18.35c-3.14,0-5.686-2.555-5.686-5.695
					v-24.658H303.991z"/>
				<path fill="#C3DFED" d="M299.501,190.481v14.791c0,1.645-1.338,2.982-2.982,2.982h-14.782c-0.966,0-1.83-0.455-2.369-1.17
					c-0.232-0.307-0.409-0.65-0.511-1.032c-0.065-0.25-0.102-0.511-0.102-0.78v-14.791c0-1.645,1.329-2.982,2.982-2.982h14.782
					C298.164,187.499,299.501,188.837,299.501,190.481z"/>
				<path fill="#F5F2DE" d="M386.695,167.217H275.748c-14.464,0-28.617,4.195-40.744,12.078l0,0h176.221l0,0
					C405.366,171.68,396.303,167.217,386.695,167.217z"/>
				<path fill="#C3BCAB" d="M283.563,218.724h-4.616c-0.794,0-1.438-0.644-1.438-1.438v-4.616c0-0.793,0.644-1.438,1.438-1.438
					h4.616c0.794,0,1.438,0.644,1.438,1.438v4.616C285,218.08,284.357,218.724,283.563,218.724z"/>
				<path fill="#E6E3CE" d="M281.602,214.978h-3.473v-2.081h3.473c0.391,0,0.708,0.317,0.708,0.708v0.664
					C282.31,214.661,281.993,214.978,281.602,214.978z"/>
				<polygon fill="#E6F5F9" points="256.382,182.779 238.209,211.581 233.796,211.581 251.969,182.779 				"/>
				<polygon fill="#E6F5F9" points="237.801,182.779 219.628,211.581 218.002,211.581 236.175,182.779 				"/>
				<path fill="#E6F5F9" d="M256.15,193.464h6.503l-11.437,18.117h-4.413l9.671-15.33h-6.503l8.501-13.472h3.475
					c0.297,0,0.595,0.028,0.882,0.093L256.15,193.464z"/>
				<polygon fill="#E6F5F9" points="243.375,182.779 225.202,211.581 220.789,211.581 238.962,182.779 				"/>
				<path fill="#E6F5F9" d="M290.573,187.499l-11.716,18.554c-0.065-0.25-0.102-0.511-0.102-0.78v-1.626l10.192-16.147H290.573z"/>
				<path fill="#E6F5F9" d="M296.147,187.499l-13.1,20.756h-1.31c-0.966,0-1.83-0.455-2.369-1.17l12.366-19.585H296.147z"/>
				<path fill="#ACA28E" d="M232.991,179.063c0,0.556,0.451,1.006,1.006,1.006h176.992c0.556,0,1.006-0.451,1.006-1.006H232.991z"/>
				<path fill="#ACA28E" d="M240.061,194.47h-1.854c-0.826,0-1.495,0.669-1.495,1.495v3.46h-0.221c-1.742,0-3.159,1.417-3.159,3.159
					v8.997h0.929v-8.997c0-1.229,1-2.23,2.229-2.23h0.221v3.46c0,0.826,0.669,1.495,1.495,1.495h1.854
					c0.825,0,1.495-0.669,1.495-1.495v-7.85C241.555,195.14,240.886,194.47,240.061,194.47z"/>
				<path fill="#382C22" d="M394.479,188.762h-73.19c-3.521,0-6.375,2.854-6.375,6.375v25.446h85.94v-25.446
					C400.854,191.616,398,188.762,394.479,188.762z"/>
				<path fill="#A0652F" d="M402.285,223.835h-88.803c-1.571,0-2.845-1.274-2.845-2.845l0,0c0-1.572,1.273-2.846,2.845-2.846h88.803
					c1.571,0,2.846,1.274,2.846,2.846l0,0C405.131,222.561,403.856,223.835,402.285,223.835z"/>
				<g>
					<path fill="#CF2583" d="M317.161,199.446L317.161,199.446c-2.24,0-4.057-1.816-4.057-4.057v-7.694h8.113v7.694
						C321.218,197.63,319.401,199.446,317.161,199.446z"/>
					<path fill="#FAEDF6" d="M327.342,199.446L327.342,199.446c-2.24,0-4.057-1.816-4.057-4.057v-7.694h8.113v7.694
						C331.398,197.63,329.582,199.446,327.342,199.446z"/>
					<path fill="#CF2583" d="M337.522,199.446L337.522,199.446c-2.24,0-4.057-1.816-4.057-4.057v-7.694h8.113v7.694
						C341.579,197.63,339.763,199.446,337.522,199.446z"/>
					<path fill="#FAEDF6" d="M347.703,199.446L347.703,199.446c-2.24,0-4.057-1.816-4.057-4.057v-7.694h8.113v7.694
						C351.76,197.63,349.943,199.446,347.703,199.446z"/>
					<path fill="#CF2583" d="M357.884,199.446L357.884,199.446c-2.24,0-4.057-1.816-4.057-4.057v-7.694h8.113v7.694
						C361.94,197.63,360.124,199.446,357.884,199.446z"/>
					<path fill="#FAEDF6" d="M368.064,199.446L368.064,199.446c-2.24,0-4.057-1.816-4.057-4.057v-7.694h8.113v7.694
						C372.121,197.63,370.305,199.446,368.064,199.446z"/>
					<path fill="#CF2583" d="M378.245,199.446L378.245,199.446c-2.24,0-4.057-1.816-4.057-4.057v-7.694h8.113v7.694
						C382.302,197.63,380.485,199.446,378.245,199.446z"/>
					<path fill="#FAEDF6" d="M388.426,199.446L388.426,199.446c-2.24,0-4.057-1.816-4.057-4.057v-7.694h8.113v7.694
						C392.482,197.63,390.666,199.446,388.426,199.446z"/>
					<path fill="#CF2583" d="M398.606,199.446L398.606,199.446c-2.24,0-4.057-1.816-4.057-4.057v-7.694h8.113v7.694
						C402.663,197.63,400.847,199.446,398.606,199.446z"/>
				</g>
				<rect x="311.492" y="186.629" fill="#A0652F" width="92.784" height="2.133"/>
				<polygon fill="#211916" points="314.914,208.255 327.342,208.255 327.342,203.026 349.204,203.026 349.204,211.232 
					367.501,211.232 367.501,204.672 378.245,204.672 378.245,208.255 400.854,208.255 400.854,218.144 314.914,218.144 				"/>
				<g>
					<g>
						<circle fill="#4D1F03" cx="390.439" cy="119.346" r="18.882"/>
						<circle fill="#E04098" cx="367.242" cy="127.599" r="27.64"/>
						<polygon fill="#A0652F" points="349.066,106.782 254.354,168.747 366.298,155.218 						"/>
						<path fill="#4D1F03" d="M364.968,99.19c-1.107,0.202-2.335,0.627-2.773,1.663c8.631,2.301,17.86,4.979,23.461,11.937
							c0.631,0.783,1.228,1.672,1.275,2.676c0.087,1.809-1.571,3.179-3.135,4.092c-5.328,3.11-11.608,4.718-16.159,8.883
							c-0.489,0.448-0.985,1.163-0.612,1.711c0.324,0.475,1.037,0.403,1.593,0.256c5.304-1.399,9.991-4.712,15.368-5.798
							c1.307-0.264,2.783-0.357,3.854,0.437c1.579,1.169,1.449,3.542,1.054,5.467c-1.428,6.948-4.251,13.605-8.253,19.462
							c-0.353,0.517-0.729,1.169-0.445,1.727c0.338,0.666,1.306,0.619,2.01,0.37c2.941-1.042,4.939-3.733,6.656-6.34
							c5.592-8.491,9.834-17.973,6.585-28.196c-2.239-7.045-9.528-12.169-15.813-15.539C375.19,99.615,370.002,98.271,364.968,99.19
							z"/>
						<path fill="#BF894A" d="M338.73,153.649c-1.313-0.831-2.769-1.717-4.314-2.629c0.141-0.27,0.279-0.53,0.42-0.805
							c0.802-1.564,1.621-3.184,2.414-4.848c0.689-1.412,1.356-2.859,2.025-4.307c0.5,0.239,1,0.48,1.499,0.711
							c1.668,0.785,3.324,1.529,4.936,2.232c3.22,1.409,6.268,2.639,8.912,3.629c2.648,0.983,4.886,1.738,6.471,2.23
							c1.583,0.498,2.511,0.734,2.511,0.734s-0.749-0.597-2.102-1.557c-1.35-0.965-3.305-2.292-5.688-3.807
							c-2.387-1.509-5.209-3.194-8.278-4.908c-1.533-0.859-3.127-1.728-4.76-2.583c-0.542-0.288-1.094-0.57-1.643-0.853
							c0.247-0.567,0.496-1.134,0.734-1.699c0.727-1.694,1.413-3.375,2.06-5.009c1.296-3.267,2.42-6.356,3.317-9.033
							c0.891-2.68,1.568-4.943,2.005-6.544c0.442-1.599,0.646-2.534,0.646-2.534s-0.57,0.769-1.483,2.154
							c-0.918,1.383-2.176,3.382-3.607,5.816c-1.426,2.438-3.012,5.316-4.618,8.443c-0.806,1.563-1.619,3.185-2.416,4.847
							c-0.242,0.494-0.478,0.998-0.714,1.499c-1.434-0.701-2.864-1.401-4.29-2.06c-1.666-0.789-3.325-1.528-4.934-2.234
							c-0.282-0.124-0.555-0.238-0.834-0.358c0.622-1.684,1.19-3.29,1.684-4.764c0.891-2.68,1.568-4.943,2.006-6.544
							c0.007-0.026,0.013-0.048,0.02-0.073l-1.83,1.197c-0.765,1.201-1.653,2.645-2.635,4.313c-0.799,1.365-1.649,2.88-2.524,4.488
							c-1.696-0.696-3.315-1.333-4.799-1.888c-0.136-0.05-0.258-0.093-0.392-0.142l-2.365,1.548c0.498,0.325,1.014,0.659,1.56,1.006
							c1.314,0.832,2.771,1.72,4.319,2.633c-0.14,0.268-0.277,0.526-0.417,0.797c-0.805,1.563-1.618,3.185-2.416,4.848
							c-0.689,1.411-1.357,2.856-2.026,4.303c-0.5-0.239-1.001-0.481-1.5-0.712c-1.666-0.789-3.324-1.528-4.934-2.234
							c-1.658-0.726-3.267-1.402-4.802-2.024c0.144-0.416,0.292-0.839,0.425-1.237c0.143-0.43,0.271-0.829,0.402-1.236l-5.561,3.638
							c0.182,0.113,0.36,0.224,0.542,0.337c-0.796,1.45-1.615,2.988-2.441,4.595c-0.805,1.563-1.619,3.185-2.416,4.847
							c-0.242,0.494-0.477,0.998-0.714,1.499c-1.433-0.701-2.864-1.401-4.29-2.061c-0.94-0.445-1.875-0.871-2.803-1.288
							l-4.087,2.674c0.041,0.023,0.082,0.046,0.124,0.07c1.535,0.855,3.126,1.73,4.762,2.58c1.423,0.758,2.883,1.492,4.344,2.229
							c-0.667,1.494-1.335,2.986-1.96,4.472c-0.731,1.692-1.412,3.375-2.062,5.008c-0.065,0.163-0.124,0.319-0.188,0.481
							c-0.15-0.084-0.293-0.167-0.444-0.252c-1.534-0.859-3.127-1.729-4.761-2.583c-1.423-0.758-2.882-1.494-4.343-2.231
							c0.667-1.495,1.333-2.988,1.958-4.474c0.718-1.674,1.396-3.334,2.036-4.95l-6.773,4.431c-0.465,0.981-0.927,1.969-1.386,2.962
							c-0.5-0.239-1-0.481-1.5-0.712c-0.109-0.052-0.216-0.099-0.324-0.15l-4.278,2.799c0.853,0.465,1.717,0.929,2.598,1.387
							c0.541,0.288,1.092,0.569,1.641,0.852c-0.247,0.566-0.497,1.132-0.734,1.696c-0.629,1.456-1.215,2.898-1.782,4.314
							l4.981-0.603c0.303-0.612,0.606-1.224,0.904-1.849c0.242-0.494,0.476-0.999,0.713-1.5c1.433,0.7,2.863,1.398,4.289,2.057
							c0.333,0.157,0.662,0.305,0.994,0.458l10.581-1.279c0.664-1.302,1.332-2.632,1.984-4c0.69-1.412,1.357-2.858,2.025-4.307
							c0.5,0.238,1.001,0.48,1.5,0.711c1.668,0.785,3.324,1.529,4.935,2.232c1.655,0.725,3.262,1.399,4.795,2.021
							c-0.145,0.418-0.293,0.844-0.427,1.245c-0.037,0.112-0.068,0.211-0.104,0.321l3.236-0.391c0.017-0.03,0.033-0.058,0.05-0.087
							c0.055,0.021,0.107,0.041,0.162,0.062l4.54-0.549c-0.674-0.444-1.379-0.903-2.148-1.392c-0.354-0.225-0.737-0.459-1.11-0.691
							c0.797-1.452,1.617-2.992,2.444-4.602c0.801-1.564,1.62-3.185,2.413-4.849c0.242-0.494,0.477-0.999,0.714-1.5
							c1.433,0.7,2.863,1.398,4.289,2.057c1.668,0.785,3.323,1.529,4.935,2.232c0.279,0.123,0.55,0.236,0.826,0.355
							c-0.622,1.686-1.191,3.294-1.686,4.769c-0.285,0.86-0.54,1.659-0.781,2.425l2.641-0.319c0.196-0.329,0.389-0.646,0.593-0.992
							c0.8-1.367,1.652-2.884,2.528-4.494c1.693,0.694,3.311,1.331,4.791,1.885c2.226,0.826,4.135,1.48,5.637,1.964l1.729-0.209
							c-0.151-0.11-0.313-0.226-0.485-0.347C343.068,156.491,341.113,155.165,338.73,153.649z M312.523,152.776
							c-0.612,1.542-1.182,3.038-1.711,4.476c-1.317-0.779-2.702-1.579-4.148-2.386c-1.533-0.859-3.127-1.729-4.76-2.583
							c-0.542-0.288-1.093-0.57-1.643-0.854c0.247-0.567,0.497-1.134,0.734-1.699c0.727-1.694,1.413-3.375,2.06-5.009
							c0.611-1.54,1.18-3.035,1.708-4.47c1.318,0.78,2.706,1.581,4.153,2.389c1.535,0.855,3.127,1.73,4.763,2.581
							c0.54,0.288,1.092,0.569,1.641,0.852c-0.247,0.565-0.497,1.132-0.734,1.696C313.854,149.46,313.174,151.143,312.523,152.776z
							 M330.453,148.741c-1.534-0.859-3.127-1.728-4.761-2.583c-1.423-0.758-2.883-1.494-4.344-2.232
							c0.667-1.495,1.333-2.987,1.958-4.473c0.727-1.695,1.413-3.375,2.06-5.01c0.064-0.161,0.122-0.315,0.186-0.476
							c0.151,0.085,0.296,0.169,0.449,0.254c1.535,0.855,3.126,1.73,4.762,2.581c1.423,0.758,2.883,1.492,4.345,2.229
							c-0.668,1.494-1.336,2.986-1.961,4.472c-0.73,1.692-1.411,3.375-2.062,5.008c-0.065,0.163-0.124,0.319-0.188,0.481
							C330.747,148.909,330.604,148.826,330.453,148.741z"/>
					</g>
					<circle fill="#C1000B" cx="411.111" cy="112.228" r="5.546"/>
					<g>
						<path fill="#C1000B" d="M411.254,112.628c0.058-0.059,5.935-5.897,17.55-4.348l-0.293,1.416
							c-11.339-1.512-16.799,3.269-16.855,3.326L411.254,112.628z"/>
					</g>
				</g>
				<g>
					<rect x="267.228" y="258.063" fill="#453D40" width="80.661" height="10.63"/>
					<path fill="#0F0C0D" d="M395.895,233.313H206.664v31.849c1.569,0.297,18.513,0.382,19.824,0.402v1.837
						c0,1.626,1.319,2.945,2.945,2.945h0.563h37.833l0,0c1.627,0,2.945-1.318,2.945-2.945v-2.629h75.101v2.629
						c0,1.626,1.319,2.945,2.945,2.945h0.332h39.616h0.151c1.627,0,2.945-1.318,2.945-2.945v-2.629h4.029V233.313z"/>
					<g>
						<circle fill="#2E2628" cx="248.783" cy="267.559" r="20.747"/>
						<circle fill="#453D40" cx="248.783" cy="267.559" r="19.431"/>
						<circle fill="#BAB6B0" cx="248.783" cy="267.559" r="12.071"/>
						<circle fill="#8A8380" cx="248.783" cy="267.559" r="5.131"/>
						<g>
							<circle fill="#8A8380" cx="248.783" cy="259.197" r="1.134"/>
							<circle fill="#8A8380" cx="248.783" cy="275.92" r="1.134"/>
						</g>
						<g>
							<circle fill="#8A8380" cx="257.145" cy="267.559" r="1.134"/>
							<circle fill="#8A8380" cx="240.421" cy="267.559" r="1.134"/>
						</g>
						<g>
							<circle fill="#8A8380" cx="254.696" cy="261.646" r="1.134"/>
							<circle fill="#8A8380" cx="242.87" cy="273.471" r="1.134"/>
						</g>
						<g>
							<circle fill="#8A8380" cx="254.696" cy="273.471" r="1.134"/>
							<circle fill="#8A8380" cx="242.87" cy="261.646" r="1.134"/>
						</g>
					</g>
					<g>
						<circle fill="#2E2628" cx="368.636" cy="267.559" r="20.747"/>
						<circle fill="#453D40" cx="368.635" cy="267.559" r="19.431"/>
						<circle fill="#BAB6B0" cx="368.635" cy="267.559" r="12.071"/>
						<circle fill="#8A8380" cx="368.635" cy="267.559" r="5.131"/>
						<g>
							<circle fill="#8A8380" cx="368.635" cy="259.197" r="1.134"/>
							<circle fill="#8A8380" cx="368.635" cy="275.92" r="1.134"/>
						</g>
						<g>
							<circle fill="#8A8380" cx="376.997" cy="267.559" r="1.134"/>
							<circle fill="#8A8380" cx="360.273" cy="267.559" r="1.134"/>
						</g>
						<g>
							<circle fill="#8A8380" cx="374.548" cy="261.646" r="1.134"/>
							<circle fill="#8A8380" cx="362.723" cy="273.471" r="1.134"/>
						</g>
						<g>
							<circle fill="#8A8380" cx="374.548" cy="273.471" r="1.134"/>
							<circle fill="#8A8380" cx="362.723" cy="261.646" r="1.134"/>
						</g>
					</g>
					<path fill="#E04098" d="M198.339,226.679c-0.028,0.623-0.038,1.236-0.038,1.858v39.021h10.685c0.407,0,0.934-0.018,1.542-0.055
						l-0.065,0.055h15.446l1.987-7.831c0.987-2.828,2.387-5.446,4.275-7.657c3.586-4.218,8.947-6.968,16.612-6.968
						c7.943,0,13.109,3.02,16.538,6.968c2.323,2.676,3.856,5.77,4.924,8.641c1.766,4.785,2.23,6.847,7.191,6.847h64.571
						c3.698,0,3.661-1.375,5.473-7.042c0.994-3.131,2.48-6.03,4.543-8.445c3.587-4.218,8.947-6.968,16.612-6.968
						c7.943,0,13.109,3.02,16.538,6.968c2.322,2.676,3.855,5.77,4.924,8.641c1.766,4.785,2.23,6.847,7.191,6.847h13.937v-40.88
						H198.339z"/>
					<path fill="#382C22" d="M207.319,258.732h-8.362c-1.988,0-3.6,1.612-3.6,3.6v6.503c0,1.988,1.612,3.601,3.6,3.601h8.362
						c1.988,0,3.6-1.612,3.6-3.601v-6.503C210.919,260.344,209.307,258.732,207.319,258.732z"/>
					<g>
						<ellipse fill="#C1000B" cx="412.641" cy="244.645" rx="1.318" ry="3.919"/>
						<path fill="#6A6567" d="M411.391,239.44c0.672,0,1.217,0.545,1.217,1.217v7.974c0,0.672-0.545,1.216-1.217,1.216h-1.352
							V239.44H411.391z"/>
						<ellipse fill="#EF473B" cx="412.532" cy="254.435" rx="0.781" ry="2.323"/>
						<path fill="#6A6567" d="M411.791,251.352c0.398,0,0.721,0.323,0.721,0.721v4.726c0,0.398-0.322,0.721-0.721,0.721h-0.801
							v-6.167H411.791z"/>
					</g>
					<path fill="#382C22" d="M410.95,258.732h-10.22c-1.988,0-3.601,1.612-3.601,3.6v6.503c0,1.988,1.612,3.601,3.601,3.601h10.22
						c1.988,0,3.601-1.612,3.601-3.601v-6.503C414.551,260.344,412.938,258.732,410.95,258.732z"/>
					<g>
						<path fill="#6A6567" d="M198.198,231.382c-1.012,0-1.833,0.82-1.833,1.833v12.013c0,1.012,0.821,1.833,1.833,1.833l0,0
							c1.125,0,2.036-0.912,2.036-2.036v-11.606C200.234,232.294,199.323,231.382,198.198,231.382L198.198,231.382z"/>
						<ellipse fill="#E6E3CE" cx="196.315" cy="239.222" rx="1.985" ry="5.905"/>
					</g>
				</g>
				<g>
					<path fill="#ACA28E" d="M261.948,181.85h-31.143c-0.513,0-0.929,0.416-0.929,0.929s0.416,0.929,0.929,0.929h7.392
						c-2.297,3.995-8.647,15.726-10.922,26.943h-13.76c-0.513,0-0.929,0.416-0.929,0.929s0.416,0.929,0.929,0.929h48.433
						c2.818,0,5.11-2.293,5.11-5.11v-20.44C267.058,184.143,264.766,181.85,261.948,181.85z M265.199,207.4
						c0,1.792-1.458,3.251-3.251,3.251H229.17c2.49-11.784,9.708-24.443,11.179-26.943h21.599c1.793,0,3.251,1.459,3.251,3.251
						V207.4z"/>
					<path fill="#ACA28E" d="M298.296,181.85h-18.35c-3.647,0-6.615,2.968-6.615,6.615v62.872c0,3.653,2.968,6.624,6.615,6.624
						h18.35c3.653,0,6.625-2.971,6.625-6.624v-62.872C304.92,184.818,301.949,181.85,298.296,181.85z M303.062,251.337
						c0,2.628-2.138,4.766-4.766,4.766h-18.35c-2.623,0-4.757-2.138-4.757-4.766v-62.872c0-2.623,2.134-4.757,4.757-4.757h18.35
						c2.628,0,4.766,2.134,4.766,4.757V251.337z"/>
					<path fill="#ACA28E" d="M296.519,186.573h-14.786c-2.157,0-3.911,1.754-3.911,3.911v14.786c0,2.157,1.754,3.911,3.911,3.911
						h14.786c2.157,0,3.911-1.754,3.911-3.911v-14.786C300.43,188.328,298.675,186.573,296.519,186.573z M298.571,205.27
						c0,1.132-0.921,2.053-2.053,2.053h-14.786c-1.132,0-2.053-0.921-2.053-2.053v-14.786c0-1.132,0.921-2.053,2.053-2.053h14.786
						c1.132,0,2.053,0.921,2.053,2.053V205.27z"/>
				</g>
				<path fill="#6A6567" d="M223.431,238.49h-4.335c-1.197,0-2.168-0.971-2.168-2.168l0,0c0-1.197,0.971-2.168,2.168-2.168h4.335
					c1.197,0,2.168,0.971,2.168,2.168l0,0C225.599,237.519,224.628,238.49,223.431,238.49z"/>
				<path fill="#EF473B" d="M222.734,237.793h-2.942c-0.813,0-1.471-0.659-1.471-1.471l0,0c0-0.813,0.659-1.471,1.471-1.471h2.942
					c0.813,0,1.471,0.659,1.471,1.471l0,0C224.206,237.134,223.547,237.793,222.734,237.793z"/>
			</g>
		</g>
		<g>
			<g>
				<polygon fill="#FFFFFF" points="205.631,340.827 208.386,343.5 212.151,342.747 210.459,346.193 212.339,349.541 
					208.539,348.997 205.936,351.82 205.936,351.82 201.791,346.434 205.185,344.64 				"/>
				<polygon fill="#FFFFFF" points="406.656,340.827 403.901,343.5 400.137,342.747 401.828,346.193 399.948,349.541 
					403.749,348.997 406.352,351.82 407.009,348.037 410.497,346.434 407.104,344.64 				"/>
			</g>
		</g>
	</g>
	<polygon display="none" fill="#E04098" points="71.397,171.965 73.574,185.218 83.73,174.512 	"/>
	<polygon display="none" fill="#E04098" points="488.536,243.368 490.713,256.621 500.869,245.916 	"/>
	<polygon display="none" fill="#E04098" points="149.502,75.924 151.679,89.177 161.835,78.471 	"/>
	<polygon display="none" fill="#E04098" points="452.837,72.785 455.013,86.038 465.17,75.333 	"/>
	<polygon display="none" fill="#E04098" points="566.158,242.607 556.995,240.436 561.179,249.9 	"/>
	<polygon display="none" fill="#E04098" points="257.64,95.01 244.218,94.532 252.712,106.599 	"/>
	<polygon display="none" fill="#DA414A" points="59.462,98.361 52.027,97.845 56.999,103.409 	"/>
	<polygon display="none" fill="#E04098" points="548.448,125.084 535.026,124.606 543.521,136.674 	"/>
	<polygon display="none" fill="#E04098" points="542.841,199.02 547.473,186.414 533.36,190.73 	"/>
	<polygon display="none" fill="#E04098" points="548.448,300.874 535.026,300.396 543.521,312.463 	"/>
	<polygon display="none" fill="#E04098" points="443.92,157.338 440.231,170.251 453.986,164.905 	"/>
	<polygon display="none" fill="#E04098" points="527.396,92.591 525.862,97.957 531.577,95.735 	"/>
	<polygon display="none" fill="#E04098" points="143.985,124.461 130.737,126.663 141.462,136.799 	"/>
	<polygon display="none" fill="#E04098" points="144.61,219.973 142.837,233.286 155.669,225.997 	"/>
	<polygon display="none" fill="#E04098" points="46.236,235.688 44.464,249.001 57.295,241.712 	"/>
	<polygon display="none" fill="#E04098" points="156.521,305.222 154.749,318.535 167.58,311.246 	"/>
	<polygon display="none" fill="#E04098" points="66.754,296.104 65.694,304.065 73.367,299.707 	"/>
	<g display="none">
		<polygon display="inline" fill="#FFFFFF" points="103.847,263.294 100.571,262.811 102.433,250.178 90.719,247.896 
			92.892,235.696 81.041,234.374 82.321,218.72 85.622,218.989 84.604,231.439 96.772,232.796 94.551,245.269 106.17,247.533 		"/>
	</g>
	<g display="none">
		<polygon display="inline" fill="#FFFFFF" points="563.497,315.138 562.709,312.54 572.726,309.502 570.32,300.02 580.125,297.364 
			576.96,288.116 589.014,283.589 589.968,286.131 580.382,289.73 583.632,299.227 573.608,301.941 575.994,311.348 		"/>
	</g>
	<g display="none">
		<polygon display="inline" fill="#FFFFFF" points="120.942,311.878 119.85,310.391 125.583,306.18 121.897,300.646 127.58,296.727 
			123.461,291.516 130.162,285.89 131.348,287.303 126.019,291.777 130.249,297.128 124.439,301.134 128.095,306.623 		"/>
	</g>
	<g display="none">
		<polygon display="inline" fill="#FFFFFF" points="161.164,179.139 159.51,179.956 156.361,173.578 150.271,176.243 
			147.401,169.964 141.552,173.113 137.179,165.535 138.777,164.612 142.254,170.64 148.26,167.406 151.194,173.825 
			157.235,171.181 		"/>
	</g>
	<g display="none">
		<polygon display="inline" fill="#FFFFFF" points="311.488,99.706 308.604,101.13 303.112,90.006 292.489,94.654 287.485,83.704 
			277.284,89.195 269.657,75.978 272.444,74.37 278.509,84.882 288.984,79.243 294.1,90.438 304.637,85.827 		"/>
	</g>
	<g display="none">
		<polygon display="inline" fill="#FFFFFF" points="459.305,207.378 459.004,205.559 466.021,204.398 465.24,197.796 
			472.082,196.875 470.768,190.363 479.29,188.38 479.708,190.177 472.931,191.754 474.279,198.439 467.285,199.382 
			468.061,205.931 		"/>
	</g>
	<g display="none">
		<polygon display="inline" fill="#FFFFFF" points="576.911,138.161 575.278,137.303 578.586,131.006 572.849,127.646 
			576.24,121.634 570.254,118.754 573.813,110.761 575.498,111.511 572.668,117.868 578.814,120.825 575.347,126.972 
			581.038,130.304 		"/>
	</g>
	<g display="none">
		<polygon display="inline" fill="#FFFFFF" points="498.821,300.809 497.044,301.304 495.135,294.452 488.655,295.94 
			487.002,289.237 480.67,291.245 477.78,282.986 479.521,282.377 481.819,288.945 488.321,286.884 490.012,293.735 496.439,292.26 
					"/>
	</g>
	<g display="none">
		<polygon display="inline" fill="#FFFFFF" points="87.627,142.559 86.359,141.066 92.112,136.178 87.795,130.597 93.518,126.022 
			88.766,120.814 95.438,114.355 96.8,115.762 91.494,120.898 96.373,126.246 90.523,130.923 94.804,136.459 		"/>
	</g>
	<g display="none">
		<polygon display="inline" fill="#FFFFFF" points="36.59,132.959 37.535,132.445 39.518,136.088 43.004,134.394 44.821,137.985 
			48.156,136.014 50.88,140.328 49.97,140.902 47.804,137.472 44.38,139.495 42.522,135.824 39.064,137.504 		"/>
	</g>
	<g display="none">
		<polygon display="inline" fill="#FFFFFF" points="206.316,126.492 205.233,125.218 210.147,121.042 206.46,116.275 
			211.348,112.368 207.29,107.919 212.988,102.403 214.151,103.604 209.619,107.992 213.787,112.559 208.79,116.554 
			212.447,121.283 		"/>
	</g>
	<g display="none">
		<polygon display="inline" fill="#FFFFFF" points="531.649,256.472 530.567,255.197 535.48,251.022 531.794,246.254 
			536.682,242.347 532.623,237.898 538.322,232.382 539.485,233.583 534.953,237.971 539.12,242.538 534.123,246.533 
			537.78,251.262 		"/>
	</g>
	<g display="none">
		<polygon display="inline" fill="#FFFFFF" points="479.707,141.47 477.459,140.211 482.312,131.543 474.427,126.64 
			479.386,118.373 471.136,114.13 476.401,103.104 478.727,104.214 474.539,112.983 483.01,117.339 477.94,125.791 485.761,130.655 
					"/>
	</g>
	<g display="none">
		<polygon display="inline" fill="#FFFFFF" points="554.448,174.856 552.815,176.168 547.757,169.875 541.664,174.327 
			536.939,168.076 531.232,173.004 524.521,165.683 526.065,164.268 531.402,170.091 537.262,165.03 542.092,171.421 
			548.137,167.005 		"/>
	</g>
	<g>
		<g>
			<g>
				<text transform="matrix(1 0 0 1 57.3667 761.8145)" fill="#4D1F03" font-family="'Milkshake'" font-size="23.9479">Special  1...........0.50 </text>
			</g>
			<g>
				<text transform="matrix(1 0 0 1 57.3667 803.9053)" fill="#4D1F03" font-family="'Milkshake'" font-size="23.9479">Special  2...........0.50 </text>
			</g>
			<g>
				<text transform="matrix(1 0 0 1 354.0996 761.8145)" fill="#4D1F03" font-family="'Milkshake'" font-size="23.9479">Special  3...........0.50 </text>
			</g>
			<g>
				<text transform="matrix(1 0 0 1 354.0996 803.9053)" fill="#4D1F03" font-family="'Milkshake'" font-size="23.9479">Special  4...........0.50 </text>
			</g>
		</g>
	</g>
	<g>
		<polygon fill="#EE2876" points="408.576,689.279 308.576,689.279 303.712,689.279 203.712,689.279 217.885,709.779 
			203.712,730.279 303.712,730.279 308.576,730.279 408.576,730.279 394.402,709.779 		"/>
		<text transform="matrix(1 0 0 1 260.752 718.0977)" fill="#FFFFFF" font-family="'Milkshake'" font-size="27.0838">Toppings</text>
	</g>
	<g>
		<text transform="matrix(1 0 0 1 55.7446 439.6602)" fill="#EE2876" font-family="'Milkshake'" font-size="37.1549">Strawberry</text>
	</g>
	<g>
		<text transform="matrix(1 0 0 1 55.7446 526.7383)" fill="#783697" font-family="'Milkshake'" font-size="37.1549">Blueberry</text>
	</g>
	<g>
		<text transform="matrix(1 0 0 1 55.7446 610.3164)" fill="#F58F0D" font-family="'Milkshake'" font-size="37.1549">Orange</text>
	</g>
	<rect x="56.891" y="455.516" fill="none" width="157.524" height="45.74"/>
	<text transform="matrix(1 0 0 1 56.8906 461.0742)"><tspan x="0" y="0" fill="#4D4D4D" font-family="'OpenSans'" font-size="8">Lorem</tspan><tspan x="21.324" y="0" fill="#4D4D4D" font-family="'OpenSans'" font-size="8" letter-spacing="5"> </tspan><tspan x="28.969" y="0" fill="#4D4D4D" font-family="'OpenSans'" font-size="8">ipsum</tspan><tspan x="48.527" y="0" fill="#4D4D4D" font-family="'OpenSans'" font-size="8" letter-spacing="5"> </tspan><tspan x="56.172" y="0" fill="#4D4D4D" font-family="'OpenSans'" font-size="8">dolor</tspan><tspan x="73.059" y="0" fill="#4D4D4D" font-family="'OpenSans'" font-size="8" letter-spacing="5"> </tspan><tspan x="80.704" y="0" fill="#4D4D4D" font-family="'OpenSans'" font-size="8">sit</tspan><tspan x="88.262" y="0" fill="#4D4D4D" font-family="'OpenSans'" font-size="8" letter-spacing="5"> </tspan><tspan x="95.907" y="0" fill="#4D4D4D" font-family="'OpenSans'" font-size="8">amet,</tspan><tspan x="113.454" y="0" fill="#4D4D4D" font-family="'OpenSans'" font-size="8" letter-spacing="5"> </tspan><tspan x="121.099" y="0" fill="#4D4D4D" font-family="'OpenSans'" font-size="8">consectetur </tspan><tspan x="0" y="9.602" fill="#4D4D4D" font-family="'OpenSans'" font-size="8">adipiscing</tspan><tspan x="32.883" y="9.602" fill="#4D4D4D" font-family="'OpenSans'" font-size="8"> </tspan><tspan x="34.808" y="9.602" fill="#4D4D4D" font-family="'OpenSans'" font-size="8">elit,</tspan><tspan x="47.026" y="9.602" fill="#4D4D4D" font-family="'OpenSans'" font-size="8"> </tspan><tspan x="48.951" y="9.602" fill="#4D4D4D" font-family="'OpenSans'" font-size="8">sed</tspan><tspan x="59.615" y="9.602" fill="#4D4D4D" font-family="'OpenSans'" font-size="8"> </tspan><tspan x="61.54" y="9.602" fill="#4D4D4D" font-family="'OpenSans'" font-size="8">do</tspan><tspan x="69.54" y="9.602" fill="#4D4D4D" font-family="'OpenSans'" font-size="8"> </tspan><tspan x="71.464" y="9.602" fill="#4D4D4D" font-family="'OpenSans'" font-size="8">eiusmod</tspan><tspan x="98.574" y="9.602" fill="#4D4D4D" font-family="'OpenSans'" font-size="8"> </tspan><tspan x="100.498" y="9.602" fill="#4D4D4D" font-family="'OpenSans'" font-size="8">tempor</tspan><tspan x="123.158" y="9.602" fill="#4D4D4D" font-family="'OpenSans'" font-size="8"> </tspan><tspan x="125.083" y="9.602" fill="#4D4D4D" font-family="'OpenSans'" font-size="8">incididunt </tspan><tspan x="0" y="20.4" fill="#4D4D4D" font-family="'OpenSans'" font-size="8">ut labore et dolore magna aliqua</tspan><tspan x="103.293" y="20.4" fill="#4D4D4D" font-family="'OpenSans'" font-size="9">.  </tspan></text>
	<rect x="56.891" y="541.85" fill="none" width="157.524" height="45.739"/>
	<text transform="matrix(1 0 0 1 56.8906 547.4082)"><tspan x="0" y="0" fill="#4D4D4D" font-family="'OpenSans'" font-size="8">Lorem</tspan><tspan x="21.324" y="0" fill="#4D4D4D" font-family="'OpenSans'" font-size="8" letter-spacing="5"> </tspan><tspan x="28.969" y="0" fill="#4D4D4D" font-family="'OpenSans'" font-size="8">ipsum</tspan><tspan x="48.527" y="0" fill="#4D4D4D" font-family="'OpenSans'" font-size="8" letter-spacing="5"> </tspan><tspan x="56.172" y="0" fill="#4D4D4D" font-family="'OpenSans'" font-size="8">dolor</tspan><tspan x="73.059" y="0" fill="#4D4D4D" font-family="'OpenSans'" font-size="8" letter-spacing="5"> </tspan><tspan x="80.704" y="0" fill="#4D4D4D" font-family="'OpenSans'" font-size="8">sit</tspan><tspan x="88.262" y="0" fill="#4D4D4D" font-family="'OpenSans'" font-size="8" letter-spacing="5"> </tspan><tspan x="95.907" y="0" fill="#4D4D4D" font-family="'OpenSans'" font-size="8">amet,</tspan><tspan x="113.454" y="0" fill="#4D4D4D" font-family="'OpenSans'" font-size="8" letter-spacing="5"> </tspan><tspan x="121.099" y="0" fill="#4D4D4D" font-family="'OpenSans'" font-size="8">consectetur </tspan><tspan x="0" y="9.601" fill="#4D4D4D" font-family="'OpenSans'" font-size="8">adipiscing</tspan><tspan x="32.883" y="9.601" fill="#4D4D4D" font-family="'OpenSans'" font-size="8"> </tspan><tspan x="34.808" y="9.601" fill="#4D4D4D" font-family="'OpenSans'" font-size="8">elit,</tspan><tspan x="47.026" y="9.601" fill="#4D4D4D" font-family="'OpenSans'" font-size="8"> </tspan><tspan x="48.951" y="9.601" fill="#4D4D4D" font-family="'OpenSans'" font-size="8">sed</tspan><tspan x="59.615" y="9.601" fill="#4D4D4D" font-family="'OpenSans'" font-size="8"> </tspan><tspan x="61.54" y="9.601" fill="#4D4D4D" font-family="'OpenSans'" font-size="8">do</tspan><tspan x="69.54" y="9.601" fill="#4D4D4D" font-family="'OpenSans'" font-size="8"> </tspan><tspan x="71.464" y="9.601" fill="#4D4D4D" font-family="'OpenSans'" font-size="8">eiusmod</tspan><tspan x="98.574" y="9.601" fill="#4D4D4D" font-family="'OpenSans'" font-size="8"> </tspan><tspan x="100.498" y="9.601" fill="#4D4D4D" font-family="'OpenSans'" font-size="8">tempor</tspan><tspan x="123.158" y="9.601" fill="#4D4D4D" font-family="'OpenSans'" font-size="8"> </tspan><tspan x="125.083" y="9.601" fill="#4D4D4D" font-family="'OpenSans'" font-size="8">incididunt </tspan><tspan x="0" y="20.4" fill="#4D4D4D" font-family="'OpenSans'" font-size="8">ut labore et dolore magna aliqua</tspan><tspan x="103.293" y="20.4" fill="#4D4D4D" font-family="'OpenSans'" font-size="9">.  </tspan></text>
	<rect x="56.891" y="628.183" fill="none" width="157.524" height="45.74"/>
	<text transform="matrix(1 0 0 1 56.8906 633.7422)"><tspan x="0" y="0" fill="#4D4D4D" font-family="'OpenSans'" font-size="8">Lorem</tspan><tspan x="21.324" y="0" fill="#4D4D4D" font-family="'OpenSans'" font-size="8" letter-spacing="5"> </tspan><tspan x="28.969" y="0" fill="#4D4D4D" font-family="'OpenSans'" font-size="8">ipsum</tspan><tspan x="48.527" y="0" fill="#4D4D4D" font-family="'OpenSans'" font-size="8" letter-spacing="5"> </tspan><tspan x="56.172" y="0" fill="#4D4D4D" font-family="'OpenSans'" font-size="8">dolor</tspan><tspan x="73.059" y="0" fill="#4D4D4D" font-family="'OpenSans'" font-size="8" letter-spacing="5"> </tspan><tspan x="80.704" y="0" fill="#4D4D4D" font-family="'OpenSans'" font-size="8">sit</tspan><tspan x="88.262" y="0" fill="#4D4D4D" font-family="'OpenSans'" font-size="8" letter-spacing="5"> </tspan><tspan x="95.907" y="0" fill="#4D4D4D" font-family="'OpenSans'" font-size="8">amet,</tspan><tspan x="113.454" y="0" fill="#4D4D4D" font-family="'OpenSans'" font-size="8" letter-spacing="5"> </tspan><tspan x="121.099" y="0" fill="#4D4D4D" font-family="'OpenSans'" font-size="8">consectetur </tspan><tspan x="0" y="9.6" fill="#4D4D4D" font-family="'OpenSans'" font-size="8">adipiscing</tspan><tspan x="32.883" y="9.6" fill="#4D4D4D" font-family="'OpenSans'" font-size="8"> </tspan><tspan x="34.808" y="9.6" fill="#4D4D4D" font-family="'OpenSans'" font-size="8">elit,</tspan><tspan x="47.026" y="9.6" fill="#4D4D4D" font-family="'OpenSans'" font-size="8"> </tspan><tspan x="48.951" y="9.6" fill="#4D4D4D" font-family="'OpenSans'" font-size="8">sed</tspan><tspan x="59.615" y="9.6" fill="#4D4D4D" font-family="'OpenSans'" font-size="8"> </tspan><tspan x="61.54" y="9.6" fill="#4D4D4D" font-family="'OpenSans'" font-size="8">do</tspan><tspan x="69.54" y="9.6" fill="#4D4D4D" font-family="'OpenSans'" font-size="8"> </tspan><tspan x="71.464" y="9.6" fill="#4D4D4D" font-family="'OpenSans'" font-size="8">eiusmod</tspan><tspan x="98.574" y="9.6" fill="#4D4D4D" font-family="'OpenSans'" font-size="8"> </tspan><tspan x="100.498" y="9.6" fill="#4D4D4D" font-family="'OpenSans'" font-size="8">tempor</tspan><tspan x="123.158" y="9.6" fill="#4D4D4D" font-family="'OpenSans'" font-size="8"> </tspan><tspan x="125.083" y="9.6" fill="#4D4D4D" font-family="'OpenSans'" font-size="8">incididunt </tspan><tspan x="0" y="20.4" fill="#4D4D4D" font-family="'OpenSans'" font-size="8">ut labore et dolore magna aliqua</tspan><tspan x="103.293" y="20.4" fill="#4D4D4D" font-family="'OpenSans'" font-size="9">.  </tspan></text>
	<g>
		<text transform="matrix(1 0 0 1 338.7705 439.6602)" fill="#4D1F03" font-family="'Milkshake'" font-size="37.1549">Chocolate</text>
	</g>
	<g>
		<text transform="matrix(1 0 0 1 338.7705 526.7383)" fill="#C4E539" font-family="'Milkshake'" font-size="37.1549">Greentea</text>
	</g>
	<g>
		<text transform="matrix(1 0 0 1 338.7705 615.3164)" fill="#6EBEC2" font-family="'Milkshake'" font-size="37.1549">Mint</text>
	</g>
	<rect x="339.916" y="455.516" fill="none" width="157.525" height="45.74"/>
	<text transform="matrix(1 0 0 1 339.916 461.0742)"><tspan x="0" y="0" fill="#4D4D4D" font-family="'OpenSans'" font-size="8">Lorem</tspan><tspan x="21.324" y="0" fill="#4D4D4D" font-family="'OpenSans'" font-size="8" letter-spacing="5"> </tspan><tspan x="28.969" y="0" fill="#4D4D4D" font-family="'OpenSans'" font-size="8">ipsum</tspan><tspan x="48.527" y="0" fill="#4D4D4D" font-family="'OpenSans'" font-size="8" letter-spacing="5"> </tspan><tspan x="56.173" y="0" fill="#4D4D4D" font-family="'OpenSans'" font-size="8">dolor</tspan><tspan x="73.06" y="0" fill="#4D4D4D" font-family="'OpenSans'" font-size="8" letter-spacing="5"> </tspan><tspan x="80.704" y="0" fill="#4D4D4D" font-family="'OpenSans'" font-size="8">sit</tspan><tspan x="88.263" y="0" fill="#4D4D4D" font-family="'OpenSans'" font-size="8" letter-spacing="5"> </tspan><tspan x="95.908" y="0" fill="#4D4D4D" font-family="'OpenSans'" font-size="8">amet,</tspan><tspan x="113.455" y="0" fill="#4D4D4D" font-family="'OpenSans'" font-size="8" letter-spacing="5"> </tspan><tspan x="121.1" y="0" fill="#4D4D4D" font-family="'OpenSans'" font-size="8">consectetur </tspan><tspan x="0" y="9.602" fill="#4D4D4D" font-family="'OpenSans'" font-size="8">adipiscing</tspan><tspan x="32.883" y="9.602" fill="#4D4D4D" font-family="'OpenSans'" font-size="8"> </tspan><tspan x="34.809" y="9.602" fill="#4D4D4D" font-family="'OpenSans'" font-size="8">elit,</tspan><tspan x="47.027" y="9.602" fill="#4D4D4D" font-family="'OpenSans'" font-size="8"> </tspan><tspan x="48.951" y="9.602" fill="#4D4D4D" font-family="'OpenSans'" font-size="8">sed</tspan><tspan x="59.615" y="9.602" fill="#4D4D4D" font-family="'OpenSans'" font-size="8"> </tspan><tspan x="61.54" y="9.602" fill="#4D4D4D" font-family="'OpenSans'" font-size="8">do</tspan><tspan x="69.54" y="9.602" fill="#4D4D4D" font-family="'OpenSans'" font-size="8"> </tspan><tspan x="71.465" y="9.602" fill="#4D4D4D" font-family="'OpenSans'" font-size="8">eiusmod</tspan><tspan x="98.574" y="9.602" fill="#4D4D4D" font-family="'OpenSans'" font-size="8"> </tspan><tspan x="100.498" y="9.602" fill="#4D4D4D" font-family="'OpenSans'" font-size="8">tempor</tspan><tspan x="123.158" y="9.602" fill="#4D4D4D" font-family="'OpenSans'" font-size="8"> </tspan><tspan x="125.084" y="9.602" fill="#4D4D4D" font-family="'OpenSans'" font-size="8">incididunt </tspan><tspan x="0" y="20.4" fill="#4D4D4D" font-family="'OpenSans'" font-size="8">ut labore et dolore magna aliqua</tspan><tspan x="103.293" y="20.4" fill="#4D4D4D" font-family="'OpenSans'" font-size="9">.  </tspan></text>
	<rect x="339.916" y="541.85" fill="none" width="157.525" height="45.739"/>
	<text transform="matrix(1 0 0 1 339.916 547.4082)"><tspan x="0" y="0" fill="#4D4D4D" font-family="'OpenSans'" font-size="8">Lorem</tspan><tspan x="21.324" y="0" fill="#4D4D4D" font-family="'OpenSans'" font-size="8" letter-spacing="5"> </tspan><tspan x="28.969" y="0" fill="#4D4D4D" font-family="'OpenSans'" font-size="8">ipsum</tspan><tspan x="48.527" y="0" fill="#4D4D4D" font-family="'OpenSans'" font-size="8" letter-spacing="5"> </tspan><tspan x="56.173" y="0" fill="#4D4D4D" font-family="'OpenSans'" font-size="8">dolor</tspan><tspan x="73.06" y="0" fill="#4D4D4D" font-family="'OpenSans'" font-size="8" letter-spacing="5"> </tspan><tspan x="80.704" y="0" fill="#4D4D4D" font-family="'OpenSans'" font-size="8">sit</tspan><tspan x="88.263" y="0" fill="#4D4D4D" font-family="'OpenSans'" font-size="8" letter-spacing="5"> </tspan><tspan x="95.908" y="0" fill="#4D4D4D" font-family="'OpenSans'" font-size="8">amet,</tspan><tspan x="113.455" y="0" fill="#4D4D4D" font-family="'OpenSans'" font-size="8" letter-spacing="5"> </tspan><tspan x="121.1" y="0" fill="#4D4D4D" font-family="'OpenSans'" font-size="8">consectetur </tspan><tspan x="0" y="9.601" fill="#4D4D4D" font-family="'OpenSans'" font-size="8">adipiscing</tspan><tspan x="32.883" y="9.601" fill="#4D4D4D" font-family="'OpenSans'" font-size="8"> </tspan><tspan x="34.809" y="9.601" fill="#4D4D4D" font-family="'OpenSans'" font-size="8">elit,</tspan><tspan x="47.027" y="9.601" fill="#4D4D4D" font-family="'OpenSans'" font-size="8"> </tspan><tspan x="48.951" y="9.601" fill="#4D4D4D" font-family="'OpenSans'" font-size="8">sed</tspan><tspan x="59.615" y="9.601" fill="#4D4D4D" font-family="'OpenSans'" font-size="8"> </tspan><tspan x="61.54" y="9.601" fill="#4D4D4D" font-family="'OpenSans'" font-size="8">do</tspan><tspan x="69.54" y="9.601" fill="#4D4D4D" font-family="'OpenSans'" font-size="8"> </tspan><tspan x="71.465" y="9.601" fill="#4D4D4D" font-family="'OpenSans'" font-size="8">eiusmod</tspan><tspan x="98.574" y="9.601" fill="#4D4D4D" font-family="'OpenSans'" font-size="8"> </tspan><tspan x="100.498" y="9.601" fill="#4D4D4D" font-family="'OpenSans'" font-size="8">tempor</tspan><tspan x="123.158" y="9.601" fill="#4D4D4D" font-family="'OpenSans'" font-size="8"> </tspan><tspan x="125.084" y="9.601" fill="#4D4D4D" font-family="'OpenSans'" font-size="8">incididunt </tspan><tspan x="0" y="20.4" fill="#4D4D4D" font-family="'OpenSans'" font-size="8">ut labore et dolore magna aliqua</tspan><tspan x="103.293" y="20.4" fill="#4D4D4D" font-family="'OpenSans'" font-size="9">.  </tspan></text>
	<rect x="339.916" y="628.183" fill="none" width="157.525" height="45.74"/>
	<text transform="matrix(1 0 0 1 339.916 633.7422)"><tspan x="0" y="0" fill="#4D4D4D" font-family="'OpenSans'" font-size="8">Lorem</tspan><tspan x="21.324" y="0" fill="#4D4D4D" font-family="'OpenSans'" font-size="8" letter-spacing="5"> </tspan><tspan x="28.969" y="0" fill="#4D4D4D" font-family="'OpenSans'" font-size="8">ipsum</tspan><tspan x="48.527" y="0" fill="#4D4D4D" font-family="'OpenSans'" font-size="8" letter-spacing="5"> </tspan><tspan x="56.173" y="0" fill="#4D4D4D" font-family="'OpenSans'" font-size="8">dolor</tspan><tspan x="73.06" y="0" fill="#4D4D4D" font-family="'OpenSans'" font-size="8" letter-spacing="5"> </tspan><tspan x="80.704" y="0" fill="#4D4D4D" font-family="'OpenSans'" font-size="8">sit</tspan><tspan x="88.263" y="0" fill="#4D4D4D" font-family="'OpenSans'" font-size="8" letter-spacing="5"> </tspan><tspan x="95.908" y="0" fill="#4D4D4D" font-family="'OpenSans'" font-size="8">amet,</tspan><tspan x="113.455" y="0" fill="#4D4D4D" font-family="'OpenSans'" font-size="8" letter-spacing="5"> </tspan><tspan x="121.1" y="0" fill="#4D4D4D" font-family="'OpenSans'" font-size="8">consectetur </tspan><tspan x="0" y="9.6" fill="#4D4D4D" font-family="'OpenSans'" font-size="8">adipiscing</tspan><tspan x="32.883" y="9.6" fill="#4D4D4D" font-family="'OpenSans'" font-size="8"> </tspan><tspan x="34.809" y="9.6" fill="#4D4D4D" font-family="'OpenSans'" font-size="8">elit,</tspan><tspan x="47.027" y="9.6" fill="#4D4D4D" font-family="'OpenSans'" font-size="8"> </tspan><tspan x="48.951" y="9.6" fill="#4D4D4D" font-family="'OpenSans'" font-size="8">sed</tspan><tspan x="59.615" y="9.6" fill="#4D4D4D" font-family="'OpenSans'" font-size="8"> </tspan><tspan x="61.54" y="9.6" fill="#4D4D4D" font-family="'OpenSans'" font-size="8">do</tspan><tspan x="69.54" y="9.6" fill="#4D4D4D" font-family="'OpenSans'" font-size="8"> </tspan><tspan x="71.465" y="9.6" fill="#4D4D4D" font-family="'OpenSans'" font-size="8">eiusmod</tspan><tspan x="98.574" y="9.6" fill="#4D4D4D" font-family="'OpenSans'" font-size="8"> </tspan><tspan x="100.498" y="9.6" fill="#4D4D4D" font-family="'OpenSans'" font-size="8">tempor</tspan><tspan x="123.158" y="9.6" fill="#4D4D4D" font-family="'OpenSans'" font-size="8"> </tspan><tspan x="125.084" y="9.6" fill="#4D4D4D" font-family="'OpenSans'" font-size="8">incididunt </tspan><tspan x="0" y="20.4" fill="#4D4D4D" font-family="'OpenSans'" font-size="8">ut labore et dolore magna aliqua</tspan><tspan x="103.293" y="20.4" fill="#4D4D4D" font-family="'OpenSans'" font-size="9">.  </tspan></text>
	<g>
		<circle fill="#F0E23D" cx="265.698" cy="442.799" r="26.916"/>
		<circle fill="#E0B605" cx="265.699" cy="442.799" r="21.74"/>
		<text transform="matrix(1 0 0 1 252.2217 445.1992)" fill="#FFFFFF" font-family="'Milkshake'" font-size="13.7308">2.50</text>
	</g>
	<g>
		<circle fill="#F0E23D" cx="265.698" cy="532.821" r="26.916"/>
		<circle fill="#E0B605" cx="265.699" cy="532.821" r="21.74"/>
		<text transform="matrix(1 0 0 1 252.2217 535.2207)" fill="#FFFFFF" font-family="'Milkshake'" font-size="13.7308">2.50</text>
	</g>
	<g>
		<circle fill="#F0E23D" cx="265.698" cy="622.843" r="26.916"/>
		<circle fill="#E0B605" cx="265.699" cy="622.843" r="21.74"/>
		<text transform="matrix(1 0 0 1 252.2217 625.2432)" fill="#FFFFFF" font-family="'Milkshake'" font-size="13.7308">2.50</text>
	</g>
	<g>
		<circle fill="#F0E23D" cx="541.737" cy="445.199" r="26.916"/>
		<circle fill="#E0B605" cx="541.737" cy="445.199" r="21.74"/>
		<text transform="matrix(1 0 0 1 528.2598 447.5996)" fill="#FFFFFF" font-family="'Milkshake'" font-size="13.7308">2.50</text>
	</g>
	<g>
		<circle fill="#F0E23D" cx="541.737" cy="532.821" r="26.916"/>
		<circle fill="#E0B605" cx="541.737" cy="532.821" r="21.74"/>
		<text transform="matrix(1 0 0 1 528.2598 535.2207)" fill="#FFFFFF" font-family="'Milkshake'" font-size="13.7308">2.50</text>
	</g>
	<g>
		<circle fill="#F0E23D" cx="541.737" cy="622.843" r="26.916"/>
		<circle fill="#E0B605" cx="541.737" cy="622.843" r="21.74"/>
		<text transform="matrix(1 0 0 1 528.2598 625.2432)" fill="#FFFFFF" font-family="'Milkshake'" font-size="13.7308">2.50</text>
	</g>
</g>
<polygon fill="#FFFFFF" points="5.12,184.326 52.153,184.565 28.512,161.944 "/>
<polygon fill="#FFFFFF" points="566.902,184.326 613.938,184.565 590.295,161.944 "/>
<polygon fill="#FFFFFF" points="528.26,184.326 575.294,184.565 551.651,161.944 "/>
</svg>
