<?xml version="1.0" encoding="utf-8"?>
<!-- Generator: Adobe Illustrator 16.0.3, SVG Export Plug-In . SVG Version: 6.00 Build 0)  -->
<!DOCTYPE svg PUBLIC "-//W3C//DTD SVG 1.1//EN" "http://www.w3.org/Graphics/SVG/1.1/DTD/svg11.dtd">
<svg version="1.1" id="PRINT" xmlns="http://www.w3.org/2000/svg" xmlns:xlink="http://www.w3.org/1999/xlink" x="0px" y="0px"
	 width="612.289px" height="386.756px" viewBox="0 0 612.289 386.756" enable-background="new 0 0 612.289 386.756"
	 xml:space="preserve">
<g>
	<g>
		<rect fill="#70C499" width="612.289" height="859.401"/>
		<g>
			<polygon fill="#FFFFFF" points="559.91,361.232 512.875,361.232 465.841,361.232 418.808,361.232 371.774,361.232 
				324.74,361.232 277.706,361.232 230.672,361.232 183.638,361.232 136.604,361.232 89.57,361.232 42.536,361.232 -5.344,361.232 
				-5.344,859.401 606.944,859.401 606.944,361.232 			"/>
			<polygon fill="#FFFFFF" points="559.91,360.993 606.944,361.232 583.301,338.611 			"/>
			<polygon fill="#FFFFFF" points="512.875,360.993 559.91,361.232 536.268,338.611 			"/>
			<polygon fill="#FFFFFF" points="465.841,360.993 512.875,361.232 489.234,338.611 			"/>
			<polygon fill="#FFFFFF" points="418.808,360.993 465.841,361.232 442.2,338.611 			"/>
			<polygon fill="#FFFFFF" points="371.774,360.993 418.808,361.232 395.166,338.611 			"/>
			<polygon fill="#FFFFFF" points="324.74,360.993 371.774,361.232 348.132,338.611 			"/>
			<polygon fill="#FFFFFF" points="277.706,360.993 324.74,361.232 301.098,338.611 			"/>
			<polygon fill="#FFFFFF" points="230.672,360.993 277.706,361.232 254.064,338.611 			"/>
			<polygon fill="#FFFFFF" points="183.638,360.993 230.672,361.232 207.03,338.611 			"/>
			<polygon fill="#FFFFFF" points="136.604,360.993 183.638,361.232 159.996,338.611 			"/>
			<polygon fill="#FFFFFF" points="89.57,360.993 136.604,361.232 112.962,338.611 			"/>
			<polygon fill="#FFFFFF" points="42.536,360.993 89.57,361.232 65.928,338.611 			"/>
			<polygon fill="#FFFFFF" points="-4.498,360.993 42.536,361.232 18.895,338.611 			"/>
		</g>
	</g>
	<g>
		<path fill="#FFFFFF" d="M16.639,61.078h-0.231c-12.013,0-21.752-9.738-21.752-21.752V0h43.735v39.326
			C38.391,51.34,28.652,61.078,16.639,61.078z"/>
		<path fill="#E04098" d="M60.374,61.078h-0.231c-12.013,0-21.752-9.738-21.752-21.752V0h43.735v39.326
			C82.125,51.34,72.387,61.078,60.374,61.078z"/>
		<path fill="#FFFFFF" d="M104.108,61.078h-0.231c-12.013,0-21.752-9.738-21.752-21.752V0h43.735v39.326
			C125.86,51.34,116.122,61.078,104.108,61.078z"/>
		<path fill="#E04098" d="M147.843,61.078h-0.231c-12.013,0-21.752-9.738-21.752-21.752V0h43.735v39.326
			C169.595,51.34,159.856,61.078,147.843,61.078z"/>
		<path fill="#FFFFFF" d="M191.578,61.078h-0.231c-12.013,0-21.752-9.738-21.752-21.752V0h43.735v39.326
			C213.33,51.34,203.591,61.078,191.578,61.078z"/>
		<path fill="#E04098" d="M235.313,61.078h-0.231c-12.013,0-21.752-9.738-21.752-21.752V0h43.735v39.326
			C257.065,51.34,247.326,61.078,235.313,61.078z"/>
		<path fill="#FFFFFF" d="M279.048,61.078h-0.231c-12.014,0-21.752-9.738-21.752-21.752V0H300.8v39.326
			C300.8,51.34,291.061,61.078,279.048,61.078z"/>
		<path fill="#E04098" d="M322.783,61.078h-0.231c-12.013,0-21.751-9.738-21.751-21.752V0h43.735v39.326
			C344.535,51.34,334.795,61.078,322.783,61.078z"/>
		<path fill="#FFFFFF" d="M366.517,61.078h-0.23c-12.014,0-21.752-9.738-21.752-21.752V0h43.734v39.326
			C388.269,51.34,378.531,61.078,366.517,61.078z"/>
		<path fill="#E04098" d="M410.252,61.078h-0.231c-12.013,0-21.752-9.738-21.752-21.752V0h43.735v39.326
			C432.004,51.34,422.265,61.078,410.252,61.078z"/>
		<path fill="#FFFFFF" d="M453.987,61.078h-0.23c-12.014,0-21.752-9.738-21.752-21.752V0h43.734v39.326
			C475.739,51.34,466,61.078,453.987,61.078z"/>
		<path fill="#E04098" d="M497.722,61.078h-0.231c-12.013,0-21.752-9.738-21.752-21.752V0h43.735v39.326
			C519.474,51.34,509.735,61.078,497.722,61.078z"/>
		<path fill="#FFFFFF" d="M541.457,61.078h-0.23c-12.014,0-21.752-9.738-21.752-21.752V0h43.734v39.326
			C563.208,51.34,553.47,61.078,541.457,61.078z"/>
		<path fill="#E04098" d="M585.192,61.078h-0.231c-12.013,0-21.752-9.738-21.752-21.752V0h43.735v39.326
			C606.944,51.34,597.205,61.078,585.192,61.078z"/>
	</g>
	<g>
		<g display="none">
			<path display="inline" fill="#FFFFFF" d="M432.553,101.83c-1.791-2.525-4.551-4.191-7.619-4.601
				c-1.786-0.238-3.572-0.359-5.311-0.359c-2.111,0-4.175,0.174-6.178,0.521c-2.324-1.203-4.945-1.859-7.682-1.859
				c-0.749,0-1.493,0.05-2.23,0.15c-5.218-4.048-11.727-6.37-18.447-6.37c-2.971,0-5.909,0.44-8.756,1.311
				c-4.428-1.886-9.016-2.872-13.438-2.872c-1.78,0-3.553,0.159-5.27,0.472c-1.979,0.361-3.619,0.978-4.968,1.708
				c-1.28,0.313-2.537,0.688-3.759,1.123c-4.363,1.552-8.363,3.841-11.902,6.808l-29.912,19.57l-2.366,1.548l-28.958,18.946
				l-2.199,1.439l-2.699,1.766l-4.61,3.016l-6.588,4.31l-0.9,0.589l-15.26,9.984c-1.051-0.541-2.203-0.921-3.427-1.107
				l-10.396-1.581l-3.029-1.697c-1.693-0.949-3.572-1.422-5.449-1.422c-1.95,0-3.897,0.51-5.637,1.53
				c-3.254,1.907-5.313,5.322-5.499,9.065c-1.564,2.129-2.471,4.745-2.471,7.522s0.907,5.393,2.471,7.522
				c0.085,1.708,0.56,3.347,1.359,4.806c-3.663,5.06-7.482,11.247-10.529,18.28c-2.522,1.909-4.274,4.784-4.702,8.069
				c-0.268,0.149-0.526,0.292-0.763,0.423c-5.888,3.26-13.214,7.316-13.574,15.757c-0.002,0.046-0.004,0.092-0.006,0.138
				c-0.045,0.071-0.089,0.144-0.132,0.215c-2.336,2.793-3.882,6.971-3.882,12.673c0,5.703,1.545,9.88,3.882,12.673
				c0.029,0.049,0.06,0.099,0.09,0.148v1.45c-1.859,2.48-2.945,5.552-2.945,8.84v6.503c0,8.133,6.616,14.75,14.749,14.75h8.362
				c4.34,0,8.249-1.884,10.95-4.878h0.627c4.553,12.221,16.333,20.747,29.888,20.747c13.175,0,24.618-7.991,29.449-19.613h60.97
				c4.854,11.602,16.342,19.613,29.434,19.613c11.856,0,22.419-6.594,27.907-16.475c1.327,0.394,2.733,0.605,4.188,0.605h10.22
				c8.133,0,14.749-6.617,14.749-14.75v-6.503c0-2.154-0.474-4.213-1.326-6.073c0.059-0.587,0.089-1.195,0.089-1.824
				c0-1.225-0.115-2.369-0.329-3.431c0.62-1.818,0.976-3.935,0.976-6.36c0-4.205-1.066-7.48-2.735-9.887v-8.079v-43.351
				c0.501-1.333,0.771-2.772,0.771-4.265c0-4.246-2.373-7.938-5.865-9.82c-6.147-6.524-14.107-10.85-22.828-12.466
				c1.709-1.856,2.914-3.686,3.722-4.913c0.984-1.495,1.879-2.941,2.693-4.355c9.525-3.524,16.372-11.451,18.71-20.885
				c2.539-1.485,4.58-3.579,5.996-6.025c0.479,0.033,0.968,0.083,1.465,0.149c0.498,0.066,0.994,0.099,1.484,0.099
				c5.212,0,9.822-3.655,10.906-8.889l0.294-1.417C435.005,107.511,434.344,104.355,432.553,101.83z"/>
			<g display="inline">
				<g>
					
						<rect x="350.516" y="157.457" transform="matrix(0.1545 0.988 -0.988 0.1545 463.2382 -218.9688)" fill="#211916" width="18.082" height="7.434"/>
				</g>
				<g>
					<path fill="#9A0004" d="M233.464,172.052c0,0,1.055,8.942,7.112,8.942v3.368c0,0-12.873-3.368-12.873-11.729L233.464,172.052z"
						/>
					<path fill="#E6E3CE" d="M219.899,169.83l4.026-1.083v5.183l-4.026-1.083c-0.682-0.184-1.156-0.802-1.156-1.508l0,0
						C218.743,170.632,219.217,170.013,219.899,169.83z"/>
					<polygon fill="#C1000B" points="226.176,167.085 226.176,167.157 221.201,164.37 221.201,178.306 226.176,175.519 
						226.176,175.591 238.399,173.733 238.399,168.943 					"/>
				</g>
				<path fill="#E6E3CE" d="M405.88,179.295v72.776H192.958v-23.534c0-0.623,0.01-1.236,0.038-1.858
					c0.167-4.162,14.06-8.213,15.156-12.078c0.297-1.022,0.613-2.025,0.948-3.02c4.422-13.007,12.701-23.599,17.29-28.802
					c1.979-2.239,3.271-3.484,3.271-3.484H405.88z"/>
				<path fill="#C3DFED" d="M260.784,186.96v20.44c0,2.313-1.867,4.181-4.181,4.181h-47.504
					c4.422-13.007,12.701-23.599,17.29-28.802h30.214c0.297,0,0.595,0.028,0.882,0.093
					C259.372,183.271,260.784,184.953,260.784,186.96z"/>
				<path fill="#E6E3CE" d="M298.647,188.465v62.872c0,3.14-2.555,5.695-5.695,5.695h-18.35c-3.14,0-5.686-2.555-5.686-5.695
					v-62.872c0-3.14,2.546-5.686,5.686-5.686h18.35C296.092,182.779,298.647,185.325,298.647,188.465z"/>
				<path fill="#E04098" d="M298.647,226.679v24.658c0,3.14-2.555,5.695-5.695,5.695h-18.35c-3.14,0-5.686-2.555-5.686-5.695
					v-24.658H298.647z"/>
				<path fill="#C3DFED" d="M294.157,190.481v14.791c0,1.645-1.338,2.982-2.982,2.982h-14.782c-0.966,0-1.83-0.455-2.369-1.17
					c-0.232-0.307-0.409-0.65-0.511-1.032c-0.065-0.25-0.102-0.511-0.102-0.78v-14.791c0-1.645,1.329-2.982,2.982-2.982h14.782
					C292.819,187.499,294.157,188.837,294.157,190.481z"/>
				<path fill="#F5F2DE" d="M381.351,167.217H270.404c-14.464,0-28.617,4.195-40.744,12.078l0,0H405.88l0,0
					C400.022,171.68,390.958,167.217,381.351,167.217z"/>
				<path fill="#C3BCAB" d="M278.219,218.724h-4.616c-0.794,0-1.438-0.644-1.438-1.438v-4.616c0-0.793,0.644-1.438,1.438-1.438
					h4.616c0.794,0,1.438,0.644,1.438,1.438v4.616C279.656,218.08,279.013,218.724,278.219,218.724z"/>
				<path fill="#E6E3CE" d="M276.258,214.978h-3.473v-2.081h3.473c0.391,0,0.708,0.317,0.708,0.708v0.664
					C276.966,214.661,276.649,214.978,276.258,214.978z"/>
				<polygon fill="#E6F5F9" points="251.038,182.779 232.865,211.581 228.452,211.581 246.625,182.779 				"/>
				<polygon fill="#E6F5F9" points="232.457,182.779 214.284,211.581 212.658,211.581 230.831,182.779 				"/>
				<path fill="#E6F5F9" d="M250.806,193.464h6.503l-11.437,18.117h-4.413l9.671-15.33h-6.503l8.501-13.472h3.475
					c0.297,0,0.595,0.028,0.882,0.093L250.806,193.464z"/>
				<polygon fill="#E6F5F9" points="238.031,182.779 219.858,211.581 215.445,211.581 233.618,182.779 				"/>
				<path fill="#E6F5F9" d="M285.229,187.499l-11.716,18.554c-0.065-0.25-0.102-0.511-0.102-0.78v-1.626l10.192-16.147H285.229z"/>
				<path fill="#E6F5F9" d="M290.803,187.499l-13.1,20.756h-1.31c-0.966,0-1.83-0.455-2.369-1.17l12.366-19.585H290.803z"/>
				<path fill="#ACA28E" d="M227.647,179.063c0,0.556,0.451,1.006,1.006,1.006h176.992c0.556,0,1.006-0.451,1.006-1.006H227.647z"/>
				<path fill="#ACA28E" d="M234.716,194.47h-1.854c-0.826,0-1.495,0.669-1.495,1.495v3.46h-0.221c-1.742,0-3.159,1.417-3.159,3.159
					v8.997h0.929v-8.997c0-1.229,1-2.23,2.229-2.23h0.221v3.46c0,0.826,0.669,1.495,1.495,1.495h1.854
					c0.825,0,1.495-0.669,1.495-1.495v-7.85C236.211,195.14,235.542,194.47,234.716,194.47z"/>
				<path fill="#382C22" d="M389.135,188.762h-73.19c-3.521,0-6.375,2.854-6.375,6.375v25.446h85.94v-25.446
					C395.51,191.616,392.656,188.762,389.135,188.762z"/>
				<path fill="#A0652F" d="M396.941,223.835h-88.803c-1.571,0-2.845-1.274-2.845-2.845l0,0c0-1.572,1.273-2.846,2.845-2.846h88.803
					c1.571,0,2.846,1.274,2.846,2.846l0,0C399.787,222.561,398.512,223.835,396.941,223.835z"/>
				<g>
					<path fill="#CF2583" d="M311.817,199.446L311.817,199.446c-2.24,0-4.057-1.816-4.057-4.057v-7.694h8.113v7.694
						C315.874,197.63,314.057,199.446,311.817,199.446z"/>
					<path fill="#FAEDF6" d="M321.998,199.446L321.998,199.446c-2.24,0-4.057-1.816-4.057-4.057v-7.694h8.113v7.694
						C326.054,197.63,324.238,199.446,321.998,199.446z"/>
					<path fill="#CF2583" d="M332.178,199.446L332.178,199.446c-2.24,0-4.057-1.816-4.057-4.057v-7.694h8.113v7.694
						C336.235,197.63,334.418,199.446,332.178,199.446z"/>
					<path fill="#FAEDF6" d="M342.359,199.446L342.359,199.446c-2.24,0-4.057-1.816-4.057-4.057v-7.694h8.113v7.694
						C346.416,197.63,344.599,199.446,342.359,199.446z"/>
					<path fill="#CF2583" d="M352.54,199.446L352.54,199.446c-2.24,0-4.057-1.816-4.057-4.057v-7.694h8.113v7.694
						C356.596,197.63,354.78,199.446,352.54,199.446z"/>
					<path fill="#FAEDF6" d="M362.72,199.446L362.72,199.446c-2.24,0-4.057-1.816-4.057-4.057v-7.694h8.113v7.694
						C366.777,197.63,364.96,199.446,362.72,199.446z"/>
					<path fill="#CF2583" d="M372.901,199.446L372.901,199.446c-2.24,0-4.057-1.816-4.057-4.057v-7.694h8.113v7.694
						C376.958,197.63,375.141,199.446,372.901,199.446z"/>
					<path fill="#FAEDF6" d="M383.082,199.446L383.082,199.446c-2.24,0-4.057-1.816-4.057-4.057v-7.694h8.113v7.694
						C387.138,197.63,385.322,199.446,383.082,199.446z"/>
					<path fill="#CF2583" d="M393.262,199.446L393.262,199.446c-2.24,0-4.057-1.816-4.057-4.057v-7.694h8.113v7.694
						C397.319,197.63,395.502,199.446,393.262,199.446z"/>
				</g>
				<rect x="306.148" y="186.629" fill="#A0652F" width="92.784" height="2.133"/>
				<polygon fill="#211916" points="309.57,208.255 321.998,208.255 321.998,203.026 343.86,203.026 343.86,211.232 
					362.157,211.232 362.157,204.672 372.901,204.672 372.901,208.255 395.51,208.255 395.51,218.144 309.57,218.144 				"/>
				<g>
					<g>
						<circle fill="#4D1F03" cx="385.095" cy="119.346" r="18.882"/>
						<circle fill="#E04098" cx="361.898" cy="127.599" r="27.64"/>
						<polygon fill="#A0652F" points="343.722,106.782 249.01,168.747 360.954,155.218 						"/>
						<path fill="#4D1F03" d="M359.624,99.19c-1.107,0.202-2.335,0.627-2.773,1.663c8.631,2.301,17.86,4.979,23.461,11.937
							c0.631,0.783,1.228,1.672,1.275,2.676c0.087,1.809-1.571,3.179-3.135,4.092c-5.328,3.11-11.608,4.718-16.159,8.883
							c-0.489,0.448-0.985,1.163-0.612,1.711c0.324,0.475,1.037,0.403,1.593,0.256c5.304-1.399,9.991-4.712,15.368-5.798
							c1.307-0.264,2.783-0.357,3.854,0.437c1.579,1.169,1.449,3.542,1.054,5.467c-1.428,6.948-4.251,13.605-8.253,19.462
							c-0.353,0.517-0.729,1.169-0.445,1.727c0.338,0.666,1.306,0.619,2.01,0.37c2.941-1.042,4.939-3.733,6.656-6.34
							c5.592-8.491,9.834-17.973,6.585-28.196c-2.239-7.045-9.528-12.169-15.813-15.539
							C369.846,99.615,364.658,98.271,359.624,99.19z"/>
						<path fill="#BF894A" d="M307.179,152.776c-0.612,1.542-1.182,3.038-1.711,4.476c-1.317-0.779-2.702-1.579-4.148-2.386
							c-1.533-0.859-3.127-1.729-4.76-2.583c-0.542-0.288-1.093-0.57-1.643-0.854c0.247-0.567,0.497-1.134,0.734-1.699
							c0.727-1.694,1.413-3.375,2.06-5.009c0.611-1.54,1.18-3.035,1.708-4.47c1.318,0.78,2.706,1.581,4.153,2.389
							c1.535,0.855,3.127,1.73,4.763,2.581c0.54,0.288,1.092,0.569,1.641,0.852c-0.247,0.565-0.497,1.132-0.734,1.696
							C308.51,149.46,307.83,151.143,307.179,152.776z M329.763,139.032c-0.668,1.494-1.336,2.986-1.961,4.472
							c-0.73,1.692-1.411,3.375-2.062,5.008c-0.065,0.163-0.124,0.319-0.188,0.481c-0.15-0.084-0.293-0.167-0.444-0.252
							c-1.534-0.859-3.127-1.728-4.761-2.583c-1.423-0.758-2.883-1.494-4.344-2.232c0.667-1.495,1.333-2.987,1.958-4.473
							c0.727-1.695,1.413-3.375,2.06-5.01c0.064-0.161,0.122-0.315,0.186-0.476c0.151,0.085,0.296,0.169,0.449,0.254"/>
					</g>
					<circle fill="#C1000B" cx="405.767" cy="112.228" r="5.546"/>
					<g>
						<path fill="#C1000B" d="M405.91,112.628c0.058-0.059,5.935-5.897,17.55-4.348l-0.293,1.416
							c-11.339-1.512-16.799,3.269-16.855,3.326L405.91,112.628z"/>
					</g>
				</g>
				<g>
					<rect x="261.883" y="258.063" fill="#453D40" width="80.661" height="10.63"/>
					<g>
						<circle fill="#2E2628" cx="243.439" cy="267.559" r="20.747"/>
						<circle fill="#453D40" cx="243.439" cy="267.559" r="19.431"/>
						<circle fill="#BAB6B0" cx="243.438" cy="267.559" r="12.071"/>
						<circle fill="#8A8380" cx="243.438" cy="267.559" r="5.131"/>
						<g>
							<circle fill="#8A8380" cx="243.439" cy="259.197" r="1.134"/>
							<circle fill="#8A8380" cx="243.439" cy="275.92" r="1.134"/>
						</g>
						<g>
							<circle fill="#8A8380" cx="251.8" cy="267.559" r="1.134"/>
							<circle fill="#8A8380" cx="235.077" cy="267.559" r="1.134"/>
						</g>
						<g>
							<circle fill="#8A8380" cx="249.351" cy="261.646" r="1.134"/>
							<circle fill="#8A8380" cx="237.526" cy="273.471" r="1.134"/>
						</g>
						<g>
							<circle fill="#8A8380" cx="249.351" cy="273.471" r="1.134"/>
							<circle fill="#8A8380" cx="237.526" cy="261.646" r="1.134"/>
						</g>
					</g>
					<g>
						<circle fill="#2E2628" cx="363.292" cy="267.559" r="20.747"/>
						<circle fill="#BAB6B0" cx="363.291" cy="267.559" r="12.071"/>
						<circle fill="#8A8380" cx="363.291" cy="267.559" r="5.131"/>
						<g>
							<circle fill="#8A8380" cx="363.291" cy="259.197" r="1.134"/>
							<circle fill="#8A8380" cx="363.291" cy="275.92" r="1.134"/>
						</g>
						<g>
							<circle fill="#8A8380" cx="371.653" cy="267.559" r="1.134"/>
							<circle fill="#8A8380" cx="354.929" cy="267.559" r="1.134"/>
						</g>
						<g>
							<circle fill="#8A8380" cx="369.204" cy="261.646" r="1.134"/>
							<circle fill="#8A8380" cx="357.378" cy="273.471" r="1.134"/>
						</g>
						<g>
							<circle fill="#8A8380" cx="369.204" cy="273.471" r="1.134"/>
							<circle fill="#8A8380" cx="357.378" cy="261.646" r="1.134"/>
						</g>
					</g>
					<path fill="#382C22" d="M201.975,258.732h-8.362c-1.988,0-3.6,1.612-3.6,3.6v6.503c0,1.988,1.612,3.601,3.6,3.601h8.362
						c1.988,0,3.6-1.612,3.6-3.601v-6.503C205.575,260.344,203.963,258.732,201.975,258.732z"/>
					<g>
						<ellipse fill="#C1000B" cx="407.297" cy="244.645" rx="1.318" ry="3.919"/>
						<path fill="#6A6567" d="M406.046,239.44c0.672,0,1.217,0.545,1.217,1.217v7.974c0,0.672-0.545,1.216-1.217,1.216h-1.352
							V239.44H406.046z"/>
						<ellipse fill="#EF473B" cx="407.188" cy="254.435" rx="0.781" ry="2.323"/>
						<path fill="#6A6567" d="M406.447,251.352c0.398,0,0.721,0.323,0.721,0.721v4.726c0,0.398-0.322,0.721-0.721,0.721h-0.801
							v-6.167H406.447z"/>
					</g>
					<path fill="#382C22" d="M405.606,258.732h-10.22c-1.988,0-3.601,1.612-3.601,3.6v6.503c0,1.988,1.612,3.601,3.601,3.601h10.22
						c1.988,0,3.601-1.612,3.601-3.601v-6.503C409.207,260.344,407.594,258.732,405.606,258.732z"/>
					<g>
						<path fill="#6A6567" d="M192.854,231.382c-1.012,0-1.833,0.82-1.833,1.833v12.013c0,1.012,0.821,1.833,1.833,1.833l0,0
							c1.125,0,2.036-0.912,2.036-2.036v-11.606C194.89,232.294,193.979,231.382,192.854,231.382L192.854,231.382z"/>
						<ellipse fill="#E6E3CE" cx="190.971" cy="239.222" rx="1.985" ry="5.905"/>
					</g>
				</g>
				<g>
					<path fill="#ACA28E" d="M256.604,181.85H225.46c-0.513,0-0.929,0.416-0.929,0.929s0.416,0.929,0.929,0.929h7.392
						c-2.297,3.995-8.647,15.726-10.922,26.943h-13.76c-0.513,0-0.929,0.416-0.929,0.929s0.416,0.929,0.929,0.929h48.433
						c2.818,0,5.11-2.293,5.11-5.11v-20.44C261.713,184.143,259.421,181.85,256.604,181.85z M259.855,207.4
						c0,1.792-1.458,3.251-3.251,3.251h-32.778c2.49-11.784,9.708-24.443,11.179-26.943h21.599c1.793,0,3.251,1.459,3.251,3.251
						V207.4z"/>
					<path fill="#ACA28E" d="M292.952,181.85h-18.35c-3.647,0-6.615,2.968-6.615,6.615v62.872c0,3.653,2.968,6.624,6.615,6.624
						h18.35c3.653,0,6.625-2.971,6.625-6.624v-62.872C299.576,184.818,296.604,181.85,292.952,181.85z M297.718,251.337
						c0,2.628-2.138,4.766-4.766,4.766h-18.35c-2.623,0-4.757-2.138-4.757-4.766v-62.872c0-2.623,2.134-4.757,4.757-4.757h18.35
						c2.628,0,4.766,2.134,4.766,4.757V251.337z"/>
					<path fill="#ACA28E" d="M291.174,186.573h-14.786c-2.157,0-3.911,1.754-3.911,3.911v14.786c0,2.157,1.754,3.911,3.911,3.911
						h14.786c2.157,0,3.911-1.754,3.911-3.911v-14.786C295.085,188.328,293.331,186.573,291.174,186.573z M293.227,205.27
						c0,1.132-0.921,2.053-2.053,2.053h-14.786c-1.132,0-2.053-0.921-2.053-2.053v-14.786c0-1.132,0.921-2.053,2.053-2.053h14.786
						c1.132,0,2.053,0.921,2.053,2.053V205.27z"/>
				</g>
				<path fill="#6A6567" d="M218.087,238.49h-4.335c-1.197,0-2.168-0.971-2.168-2.168l0,0c0-1.197,0.971-2.168,2.168-2.168h4.335
					c1.197,0,2.168,0.971,2.168,2.168l0,0C220.255,237.519,219.284,238.49,218.087,238.49z"/>
				<path fill="#EF473B" d="M218.861,236.322c0,0.813-0.659,1.471-1.471,1.471h-2.942c-0.813,0-1.471-0.659-1.471-1.471l0,0
					c0-0.813,0.659-1.471,1.471-1.471h2.942"/>
			</g>
		</g>
		<g>
			<g>
				<path fill="#EE2876" d="M452.244,321.047c-47.862-19.826-98.645-29.865-149.464-30.119c-1.32-0.007-2.64-0.007-3.96,0
					c-50.819,0.254-101.602,10.293-149.464,30.119c14.247,9.038,27.658,18.808,40.185,29.202
					c-3.86,15.814-6.687,31.619-8.494,47.307c37.847-15.677,78.002-23.615,118.188-23.816c1.043-0.005,2.087-0.005,3.13,0
					c40.186,0.201,80.341,8.14,118.188,23.816c-1.807-15.688-4.634-31.493-8.494-47.307
					C424.585,339.855,437.997,330.085,452.244,321.047z"/>
			</g>
			<g>
				<polygon fill="#FFFFFF" points="200.287,340.827 203.042,343.5 206.807,342.747 205.115,346.193 206.995,349.541 
					203.195,348.997 200.592,351.82 199.935,348.037 196.446,346.434 199.84,344.64 				"/>
				<polygon fill="#FFFFFF" points="401.312,340.827 398.557,343.5 394.792,342.747 396.484,346.193 394.604,349.541 
					398.405,348.997 401.007,351.82 401.665,348.037 405.153,346.434 401.759,344.64 				"/>
			</g>
		</g>
	</g>
	<polygon fill="#E04098" points="66.053,171.965 68.229,185.218 78.386,174.512 	"/>
	<polygon fill="#E04098" points="483.192,243.368 485.369,256.621 495.525,245.916 	"/>
	<polygon fill="#E04098" points="144.158,75.924 146.334,89.177 156.491,78.471 	"/>
	<polygon fill="#E04098" points="447.493,72.785 449.668,86.038 459.826,75.333 	"/>
	<polygon fill="#E04098" points="560.814,242.607 551.651,240.436 555.834,249.9 	"/>
	<polygon fill="#E04098" points="252.295,95.01 238.874,94.532 247.368,106.599 	"/>
	<polygon fill="#E04098" points="54.118,98.361 46.683,97.845 51.654,103.409 	"/>
	<polygon fill="#E04098" points="543.104,125.084 529.682,124.606 538.176,136.674 	"/>
	<polygon fill="#E04098" points="537.497,199.02 542.128,186.414 528.016,190.73 	"/>
	<polygon fill="#E04098" points="543.104,300.874 529.682,300.396 538.176,312.463 	"/>
	<polygon fill="#E04098" points="438.576,157.338 434.887,170.251 448.642,164.905 	"/>
	<polygon fill="#E04098" points="522.051,92.591 520.518,97.957 526.233,95.735 	"/>
	<polygon fill="#E04098" points="138.641,124.461 125.393,126.663 136.118,136.799 	"/>
	<polygon fill="#E04098" points="139.266,219.973 137.493,233.286 150.325,225.997 	"/>
	<polygon fill="#E04098" points="40.892,235.688 39.12,249.001 51.951,241.712 	"/>
	<polygon fill="#E04098" points="151.176,305.222 149.404,318.535 162.235,311.246 	"/>
	<polygon fill="#E04098" points="61.41,296.104 60.35,304.065 68.023,299.707 	"/>
	<g>
		<polygon fill="#FFFFFF" points="98.503,263.294 95.227,262.811 97.089,250.178 85.375,247.896 87.548,235.696 75.697,234.374 
			76.977,218.72 80.277,218.989 79.259,231.439 91.428,232.796 89.207,245.269 100.826,247.533 		"/>
	</g>
	<g>
		<polygon fill="#FFFFFF" points="558.153,315.138 557.365,312.54 567.381,309.502 564.976,300.02 574.781,297.364 571.616,288.116 
			583.669,283.589 584.624,286.131 575.038,289.73 578.288,299.227 568.264,301.941 570.65,311.348 		"/>
	</g>
	<g>
		<polygon fill="#FFFFFF" points="115.598,311.878 114.506,310.391 120.238,306.18 116.553,300.646 122.236,296.727 
			118.117,291.516 124.817,285.89 126.004,287.303 120.674,291.777 124.904,297.128 119.095,301.134 122.75,306.623 		"/>
	</g>
	<g>
		<polygon fill="#FFFFFF" points="155.82,179.139 154.166,179.956 151.017,173.578 144.926,176.243 142.057,169.964 
			136.208,173.113 131.835,165.535 133.433,164.612 136.91,170.64 142.916,167.406 145.85,173.825 151.891,171.181 		"/>
	</g>
	<g>
		<polygon fill="#FFFFFF" points="306.144,99.706 303.259,101.13 297.768,90.006 287.145,94.654 282.141,83.704 271.939,89.195 
			264.313,75.978 267.1,74.37 273.165,84.882 283.64,79.243 288.755,90.438 299.292,85.827 		"/>
	</g>
	<g>
		<polygon fill="#FFFFFF" points="453.96,207.378 453.66,205.559 460.677,204.398 459.896,197.796 466.738,196.875 465.423,190.363 
			473.946,188.38 474.364,190.177 467.586,191.754 468.935,198.439 461.941,199.382 462.716,205.931 		"/>
	</g>
	<g>
		<polygon fill="#FFFFFF" points="571.567,138.161 569.934,137.303 573.242,131.006 567.504,127.646 570.896,121.634 
			564.91,118.754 568.468,110.761 570.154,111.511 567.324,117.868 573.47,120.825 570.002,126.972 575.694,130.304 		"/>
	</g>
	<g>
		<polygon fill="#FFFFFF" points="493.477,300.809 491.7,301.304 489.791,294.452 483.311,295.94 481.658,289.237 475.326,291.245 
			472.436,282.986 474.177,282.377 476.475,288.945 482.977,286.884 484.667,293.735 491.095,292.26 		"/>
	</g>
	<g>
		<polygon fill="#FFFFFF" points="82.283,142.559 81.015,141.066 86.768,136.178 82.451,130.597 88.174,126.022 83.422,120.814 
			90.094,114.355 91.456,115.762 86.149,120.898 91.029,126.246 85.179,130.923 89.46,136.459 		"/>
	</g>
	<g>
		<polygon fill="#FFFFFF" points="31.246,132.959 32.19,132.445 34.173,136.088 37.66,134.394 39.477,137.985 42.812,136.014 
			45.536,140.328 44.626,140.902 42.46,137.472 39.036,139.495 37.178,135.824 33.72,137.504 		"/>
	</g>
	<g>
		<polygon fill="#FFFFFF" points="200.972,126.492 199.889,125.218 204.803,121.042 201.116,116.275 206.004,112.368 
			201.945,107.919 207.644,102.403 208.807,103.604 204.275,107.992 208.442,112.559 203.445,116.554 207.103,121.283 		"/>
	</g>
	<g>
		<polygon fill="#FFFFFF" points="526.305,256.472 525.223,255.197 530.136,251.022 526.45,246.254 531.337,242.347 
			527.279,237.898 532.978,232.382 534.141,233.583 529.609,237.971 533.776,242.538 528.779,246.533 532.436,251.262 		"/>
	</g>
	<g>
		<polygon fill="#FFFFFF" points="474.363,141.47 472.115,140.211 476.967,131.543 469.083,126.64 474.042,118.373 465.792,114.13 
			471.057,103.104 473.382,104.214 469.195,112.983 477.666,117.339 472.596,125.791 480.417,130.655 		"/>
	</g>
	<g>
		<polygon fill="#FFFFFF" points="549.104,174.856 547.471,176.168 542.413,169.875 536.32,174.327 531.595,168.076 
			525.888,173.004 519.177,165.683 520.721,164.268 526.058,170.091 531.917,165.03 536.748,171.421 542.792,167.005 		"/>
	</g>
	<g>
		<g>
			<g>
				<text transform="matrix(1 0 0 1 52.0225 761.8145)" fill="#4D1F03" font-family="'Milkshake'" font-size="23.9479">Special  1...........0.50 </text>
			</g>
			<g>
				<text transform="matrix(1 0 0 1 52.0225 803.9053)" fill="#4D1F03" font-family="'Milkshake'" font-size="23.9479">Special  2...........0.50 </text>
			</g>
			<g>
				<text transform="matrix(1 0 0 1 348.7554 761.8145)" fill="#4D1F03" font-family="'Milkshake'" font-size="23.9479">Special  3...........0.50 </text>
			</g>
			<g>
				<text transform="matrix(1 0 0 1 348.7554 803.9053)" fill="#4D1F03" font-family="'Milkshake'" font-size="23.9479">Special  4...........0.50 </text>
			</g>
		</g>
	</g>
	<g>
		<polygon fill="#EE2876" points="403.232,689.279 303.232,689.279 298.368,689.279 198.368,689.279 212.541,709.779 
			198.368,730.279 298.368,730.279 303.232,730.279 403.232,730.279 389.058,709.779 		"/>
		<text transform="matrix(1 0 0 1 255.4077 718.0977)" fill="#FFFFFF" font-family="'Milkshake'" font-size="27.0838">Toppings</text>
	</g>
	<g>
		<text transform="matrix(1 0 0 1 50.4004 439.6602)" fill="#EE2876" font-family="'Milkshake'" font-size="37.1549">Strawberry</text>
	</g>
	<g>
		<text transform="matrix(1 0 0 1 50.4004 526.7383)" fill="#783697" font-family="'Milkshake'" font-size="37.1549">Blueberry</text>
	</g>
	<g>
		<text transform="matrix(1 0 0 1 50.4004 610.3164)" fill="#F58F0D" font-family="'Milkshake'" font-size="37.1549">Orange</text>
	</g>
	<rect x="51.546" y="455.516" fill="none" width="157.524" height="45.74"/>
	<text transform="matrix(1 0 0 1 51.5464 461.0742)"><tspan x="0" y="0" fill="#4D4D4D" font-family="'OpenSans'" font-size="8">Lorem</tspan><tspan x="21.324" y="0" fill="#4D4D4D" font-family="'OpenSans'" font-size="8" letter-spacing="5"> </tspan><tspan x="28.969" y="0" fill="#4D4D4D" font-family="'OpenSans'" font-size="8">ipsum</tspan><tspan x="48.527" y="0" fill="#4D4D4D" font-family="'OpenSans'" font-size="8" letter-spacing="5"> </tspan><tspan x="56.172" y="0" fill="#4D4D4D" font-family="'OpenSans'" font-size="8">dolor</tspan><tspan x="73.059" y="0" fill="#4D4D4D" font-family="'OpenSans'" font-size="8" letter-spacing="5"> </tspan><tspan x="80.704" y="0" fill="#4D4D4D" font-family="'OpenSans'" font-size="8">sit</tspan><tspan x="88.262" y="0" fill="#4D4D4D" font-family="'OpenSans'" font-size="8" letter-spacing="5"> </tspan><tspan x="95.907" y="0" fill="#4D4D4D" font-family="'OpenSans'" font-size="8">amet,</tspan><tspan x="113.454" y="0" fill="#4D4D4D" font-family="'OpenSans'" font-size="8" letter-spacing="5"> </tspan><tspan x="121.099" y="0" fill="#4D4D4D" font-family="'OpenSans'" font-size="8">consectetur </tspan><tspan x="0" y="9.602" fill="#4D4D4D" font-family="'OpenSans'" font-size="8">adipiscing</tspan><tspan x="32.883" y="9.602" fill="#4D4D4D" font-family="'OpenSans'" font-size="8"> </tspan><tspan x="34.808" y="9.602" fill="#4D4D4D" font-family="'OpenSans'" font-size="8">elit,</tspan><tspan x="47.026" y="9.602" fill="#4D4D4D" font-family="'OpenSans'" font-size="8"> </tspan><tspan x="48.951" y="9.602" fill="#4D4D4D" font-family="'OpenSans'" font-size="8">sed</tspan><tspan x="59.615" y="9.602" fill="#4D4D4D" font-family="'OpenSans'" font-size="8"> </tspan><tspan x="61.54" y="9.602" fill="#4D4D4D" font-family="'OpenSans'" font-size="8">do</tspan><tspan x="69.54" y="9.602" fill="#4D4D4D" font-family="'OpenSans'" font-size="8"> </tspan><tspan x="71.464" y="9.602" fill="#4D4D4D" font-family="'OpenSans'" font-size="8">eiusmod</tspan><tspan x="98.574" y="9.602" fill="#4D4D4D" font-family="'OpenSans'" font-size="8"> </tspan><tspan x="100.498" y="9.602" fill="#4D4D4D" font-family="'OpenSans'" font-size="8">tempor</tspan><tspan x="123.158" y="9.602" fill="#4D4D4D" font-family="'OpenSans'" font-size="8"> </tspan><tspan x="125.083" y="9.602" fill="#4D4D4D" font-family="'OpenSans'" font-size="8">incididunt </tspan><tspan x="0" y="20.4" fill="#4D4D4D" font-family="'OpenSans'" font-size="8">ut labore et dolore magna aliqua</tspan><tspan x="103.293" y="20.4" fill="#4D4D4D" font-family="'OpenSans'" font-size="9">.  </tspan></text>
	<rect x="51.546" y="541.85" fill="none" width="157.524" height="45.739"/>
	<text transform="matrix(1 0 0 1 51.5464 547.4082)"><tspan x="0" y="0" fill="#4D4D4D" font-family="'OpenSans'" font-size="8">Lorem</tspan><tspan x="21.324" y="0" fill="#4D4D4D" font-family="'OpenSans'" font-size="8" letter-spacing="5"> </tspan><tspan x="28.969" y="0" fill="#4D4D4D" font-family="'OpenSans'" font-size="8">ipsum</tspan><tspan x="48.527" y="0" fill="#4D4D4D" font-family="'OpenSans'" font-size="8" letter-spacing="5"> </tspan><tspan x="56.172" y="0" fill="#4D4D4D" font-family="'OpenSans'" font-size="8">dolor</tspan><tspan x="73.059" y="0" fill="#4D4D4D" font-family="'OpenSans'" font-size="8" letter-spacing="5"> </tspan><tspan x="80.704" y="0" fill="#4D4D4D" font-family="'OpenSans'" font-size="8">sit</tspan><tspan x="88.262" y="0" fill="#4D4D4D" font-family="'OpenSans'" font-size="8" letter-spacing="5"> </tspan><tspan x="95.907" y="0" fill="#4D4D4D" font-family="'OpenSans'" font-size="8">amet,</tspan><tspan x="113.454" y="0" fill="#4D4D4D" font-family="'OpenSans'" font-size="8" letter-spacing="5"> </tspan><tspan x="121.099" y="0" fill="#4D4D4D" font-family="'OpenSans'" font-size="8">consectetur </tspan><tspan x="0" y="9.601" fill="#4D4D4D" font-family="'OpenSans'" font-size="8">adipiscing</tspan><tspan x="32.883" y="9.601" fill="#4D4D4D" font-family="'OpenSans'" font-size="8"> </tspan><tspan x="34.808" y="9.601" fill="#4D4D4D" font-family="'OpenSans'" font-size="8">elit,</tspan><tspan x="47.026" y="9.601" fill="#4D4D4D" font-family="'OpenSans'" font-size="8"> </tspan><tspan x="48.951" y="9.601" fill="#4D4D4D" font-family="'OpenSans'" font-size="8">sed</tspan><tspan x="59.615" y="9.601" fill="#4D4D4D" font-family="'OpenSans'" font-size="8"> </tspan><tspan x="61.54" y="9.601" fill="#4D4D4D" font-family="'OpenSans'" font-size="8">do</tspan><tspan x="69.54" y="9.601" fill="#4D4D4D" font-family="'OpenSans'" font-size="8"> </tspan><tspan x="71.464" y="9.601" fill="#4D4D4D" font-family="'OpenSans'" font-size="8">eiusmod</tspan><tspan x="98.574" y="9.601" fill="#4D4D4D" font-family="'OpenSans'" font-size="8"> </tspan><tspan x="100.498" y="9.601" fill="#4D4D4D" font-family="'OpenSans'" font-size="8">tempor</tspan><tspan x="123.158" y="9.601" fill="#4D4D4D" font-family="'OpenSans'" font-size="8"> </tspan><tspan x="125.083" y="9.601" fill="#4D4D4D" font-family="'OpenSans'" font-size="8">incididunt </tspan><tspan x="0" y="20.4" fill="#4D4D4D" font-family="'OpenSans'" font-size="8">ut labore et dolore magna aliqua</tspan><tspan x="103.293" y="20.4" fill="#4D4D4D" font-family="'OpenSans'" font-size="9">.  </tspan></text>
	<rect x="51.546" y="628.183" fill="none" width="157.524" height="45.74"/>
	<text transform="matrix(1 0 0 1 51.5464 633.7422)"><tspan x="0" y="0" fill="#4D4D4D" font-family="'OpenSans'" font-size="8">Lorem</tspan><tspan x="21.324" y="0" fill="#4D4D4D" font-family="'OpenSans'" font-size="8" letter-spacing="5"> </tspan><tspan x="28.969" y="0" fill="#4D4D4D" font-family="'OpenSans'" font-size="8">ipsum</tspan><tspan x="48.527" y="0" fill="#4D4D4D" font-family="'OpenSans'" font-size="8" letter-spacing="5"> </tspan><tspan x="56.172" y="0" fill="#4D4D4D" font-family="'OpenSans'" font-size="8">dolor</tspan><tspan x="73.059" y="0" fill="#4D4D4D" font-family="'OpenSans'" font-size="8" letter-spacing="5"> </tspan><tspan x="80.704" y="0" fill="#4D4D4D" font-family="'OpenSans'" font-size="8">sit</tspan><tspan x="88.262" y="0" fill="#4D4D4D" font-family="'OpenSans'" font-size="8" letter-spacing="5"> </tspan><tspan x="95.907" y="0" fill="#4D4D4D" font-family="'OpenSans'" font-size="8">amet,</tspan><tspan x="113.454" y="0" fill="#4D4D4D" font-family="'OpenSans'" font-size="8" letter-spacing="5"> </tspan><tspan x="121.099" y="0" fill="#4D4D4D" font-family="'OpenSans'" font-size="8">consectetur </tspan><tspan x="0" y="9.6" fill="#4D4D4D" font-family="'OpenSans'" font-size="8">adipiscing</tspan><tspan x="32.883" y="9.6" fill="#4D4D4D" font-family="'OpenSans'" font-size="8"> </tspan><tspan x="34.808" y="9.6" fill="#4D4D4D" font-family="'OpenSans'" font-size="8">elit,</tspan><tspan x="47.026" y="9.6" fill="#4D4D4D" font-family="'OpenSans'" font-size="8"> </tspan><tspan x="48.951" y="9.6" fill="#4D4D4D" font-family="'OpenSans'" font-size="8">sed</tspan><tspan x="59.615" y="9.6" fill="#4D4D4D" font-family="'OpenSans'" font-size="8"> </tspan><tspan x="61.54" y="9.6" fill="#4D4D4D" font-family="'OpenSans'" font-size="8">do</tspan><tspan x="69.54" y="9.6" fill="#4D4D4D" font-family="'OpenSans'" font-size="8"> </tspan><tspan x="71.464" y="9.6" fill="#4D4D4D" font-family="'OpenSans'" font-size="8">eiusmod</tspan><tspan x="98.574" y="9.6" fill="#4D4D4D" font-family="'OpenSans'" font-size="8"> </tspan><tspan x="100.498" y="9.6" fill="#4D4D4D" font-family="'OpenSans'" font-size="8">tempor</tspan><tspan x="123.158" y="9.6" fill="#4D4D4D" font-family="'OpenSans'" font-size="8"> </tspan><tspan x="125.083" y="9.6" fill="#4D4D4D" font-family="'OpenSans'" font-size="8">incididunt </tspan><tspan x="0" y="20.4" fill="#4D4D4D" font-family="'OpenSans'" font-size="8">ut labore et dolore magna aliqua</tspan><tspan x="103.293" y="20.4" fill="#4D4D4D" font-family="'OpenSans'" font-size="9">.  </tspan></text>
	<g>
		<text transform="matrix(1 0 0 1 333.4263 439.6602)" fill="#4D1F03" font-family="'Milkshake'" font-size="37.1549">Chocolate</text>
	</g>
	<g>
		<text transform="matrix(1 0 0 1 333.4263 526.7383)" fill="#C4E539" font-family="'Milkshake'" font-size="37.1549">Greentea</text>
	</g>
	<g>
		<text transform="matrix(1 0 0 1 333.4263 615.3164)" fill="#6EBEC2" font-family="'Milkshake'" font-size="37.1549">Mint</text>
	</g>
	<rect x="334.572" y="455.516" fill="none" width="157.525" height="45.74"/>
	<text transform="matrix(1 0 0 1 334.5718 461.0742)"><tspan x="0" y="0" fill="#4D4D4D" font-family="'OpenSans'" font-size="8">Lorem</tspan><tspan x="21.324" y="0" fill="#4D4D4D" font-family="'OpenSans'" font-size="8" letter-spacing="5"> </tspan><tspan x="28.969" y="0" fill="#4D4D4D" font-family="'OpenSans'" font-size="8">ipsum</tspan><tspan x="48.527" y="0" fill="#4D4D4D" font-family="'OpenSans'" font-size="8" letter-spacing="5"> </tspan><tspan x="56.173" y="0" fill="#4D4D4D" font-family="'OpenSans'" font-size="8">dolor</tspan><tspan x="73.06" y="0" fill="#4D4D4D" font-family="'OpenSans'" font-size="8" letter-spacing="5"> </tspan><tspan x="80.704" y="0" fill="#4D4D4D" font-family="'OpenSans'" font-size="8">sit</tspan><tspan x="88.263" y="0" fill="#4D4D4D" font-family="'OpenSans'" font-size="8" letter-spacing="5"> </tspan><tspan x="95.908" y="0" fill="#4D4D4D" font-family="'OpenSans'" font-size="8">amet,</tspan><tspan x="113.455" y="0" fill="#4D4D4D" font-family="'OpenSans'" font-size="8" letter-spacing="5"> </tspan><tspan x="121.1" y="0" fill="#4D4D4D" font-family="'OpenSans'" font-size="8">consectetur </tspan><tspan x="0" y="9.602" fill="#4D4D4D" font-family="'OpenSans'" font-size="8">adipiscing</tspan><tspan x="32.883" y="9.602" fill="#4D4D4D" font-family="'OpenSans'" font-size="8"> </tspan><tspan x="34.809" y="9.602" fill="#4D4D4D" font-family="'OpenSans'" font-size="8">elit,</tspan><tspan x="47.027" y="9.602" fill="#4D4D4D" font-family="'OpenSans'" font-size="8"> </tspan><tspan x="48.951" y="9.602" fill="#4D4D4D" font-family="'OpenSans'" font-size="8">sed</tspan><tspan x="59.615" y="9.602" fill="#4D4D4D" font-family="'OpenSans'" font-size="8"> </tspan><tspan x="61.54" y="9.602" fill="#4D4D4D" font-family="'OpenSans'" font-size="8">do</tspan><tspan x="69.54" y="9.602" fill="#4D4D4D" font-family="'OpenSans'" font-size="8"> </tspan><tspan x="71.465" y="9.602" fill="#4D4D4D" font-family="'OpenSans'" font-size="8">eiusmod</tspan><tspan x="98.574" y="9.602" fill="#4D4D4D" font-family="'OpenSans'" font-size="8"> </tspan><tspan x="100.498" y="9.602" fill="#4D4D4D" font-family="'OpenSans'" font-size="8">tempor</tspan><tspan x="123.158" y="9.602" fill="#4D4D4D" font-family="'OpenSans'" font-size="8"> </tspan><tspan x="125.084" y="9.602" fill="#4D4D4D" font-family="'OpenSans'" font-size="8">incididunt </tspan><tspan x="0" y="20.4" fill="#4D4D4D" font-family="'OpenSans'" font-size="8">ut labore et dolore magna aliqua</tspan><tspan x="103.293" y="20.4" fill="#4D4D4D" font-family="'OpenSans'" font-size="9">.  </tspan></text>
	<rect x="334.572" y="541.85" fill="none" width="157.525" height="45.739"/>
	<text transform="matrix(1 0 0 1 334.5718 547.4082)"><tspan x="0" y="0" fill="#4D4D4D" font-family="'OpenSans'" font-size="8">Lorem</tspan><tspan x="21.324" y="0" fill="#4D4D4D" font-family="'OpenSans'" font-size="8" letter-spacing="5"> </tspan><tspan x="28.969" y="0" fill="#4D4D4D" font-family="'OpenSans'" font-size="8">ipsum</tspan><tspan x="48.527" y="0" fill="#4D4D4D" font-family="'OpenSans'" font-size="8" letter-spacing="5"> </tspan><tspan x="56.173" y="0" fill="#4D4D4D" font-family="'OpenSans'" font-size="8">dolor</tspan><tspan x="73.06" y="0" fill="#4D4D4D" font-family="'OpenSans'" font-size="8" letter-spacing="5"> </tspan><tspan x="80.704" y="0" fill="#4D4D4D" font-family="'OpenSans'" font-size="8">sit</tspan><tspan x="88.263" y="0" fill="#4D4D4D" font-family="'OpenSans'" font-size="8" letter-spacing="5"> </tspan><tspan x="95.908" y="0" fill="#4D4D4D" font-family="'OpenSans'" font-size="8">amet,</tspan><tspan x="113.455" y="0" fill="#4D4D4D" font-family="'OpenSans'" font-size="8" letter-spacing="5"> </tspan><tspan x="121.1" y="0" fill="#4D4D4D" font-family="'OpenSans'" font-size="8">consectetur </tspan><tspan x="0" y="9.601" fill="#4D4D4D" font-family="'OpenSans'" font-size="8">adipiscing</tspan><tspan x="32.883" y="9.601" fill="#4D4D4D" font-family="'OpenSans'" font-size="8"> </tspan><tspan x="34.809" y="9.601" fill="#4D4D4D" font-family="'OpenSans'" font-size="8">elit,</tspan><tspan x="47.027" y="9.601" fill="#4D4D4D" font-family="'OpenSans'" font-size="8"> </tspan><tspan x="48.951" y="9.601" fill="#4D4D4D" font-family="'OpenSans'" font-size="8">sed</tspan><tspan x="59.615" y="9.601" fill="#4D4D4D" font-family="'OpenSans'" font-size="8"> </tspan><tspan x="61.54" y="9.601" fill="#4D4D4D" font-family="'OpenSans'" font-size="8">do</tspan><tspan x="69.54" y="9.601" fill="#4D4D4D" font-family="'OpenSans'" font-size="8"> </tspan><tspan x="71.465" y="9.601" fill="#4D4D4D" font-family="'OpenSans'" font-size="8">eiusmod</tspan><tspan x="98.574" y="9.601" fill="#4D4D4D" font-family="'OpenSans'" font-size="8"> </tspan><tspan x="100.498" y="9.601" fill="#4D4D4D" font-family="'OpenSans'" font-size="8">tempor</tspan><tspan x="123.158" y="9.601" fill="#4D4D4D" font-family="'OpenSans'" font-size="8"> </tspan><tspan x="125.084" y="9.601" fill="#4D4D4D" font-family="'OpenSans'" font-size="8">incididunt </tspan><tspan x="0" y="20.4" fill="#4D4D4D" font-family="'OpenSans'" font-size="8">ut labore et dolore magna aliqua</tspan><tspan x="103.293" y="20.4" fill="#4D4D4D" font-family="'OpenSans'" font-size="9">.  </tspan></text>
	<rect x="334.572" y="628.183" fill="none" width="157.525" height="45.74"/>
	<text transform="matrix(1 0 0 1 334.5718 633.7422)"><tspan x="0" y="0" fill="#4D4D4D" font-family="'OpenSans'" font-size="8">Lorem</tspan><tspan x="21.324" y="0" fill="#4D4D4D" font-family="'OpenSans'" font-size="8" letter-spacing="5"> </tspan><tspan x="28.969" y="0" fill="#4D4D4D" font-family="'OpenSans'" font-size="8">ipsum</tspan><tspan x="48.527" y="0" fill="#4D4D4D" font-family="'OpenSans'" font-size="8" letter-spacing="5"> </tspan><tspan x="56.173" y="0" fill="#4D4D4D" font-family="'OpenSans'" font-size="8">dolor</tspan><tspan x="73.06" y="0" fill="#4D4D4D" font-family="'OpenSans'" font-size="8" letter-spacing="5"> </tspan><tspan x="80.704" y="0" fill="#4D4D4D" font-family="'OpenSans'" font-size="8">sit</tspan><tspan x="88.263" y="0" fill="#4D4D4D" font-family="'OpenSans'" font-size="8" letter-spacing="5"> </tspan><tspan x="95.908" y="0" fill="#4D4D4D" font-family="'OpenSans'" font-size="8">amet,</tspan><tspan x="113.455" y="0" fill="#4D4D4D" font-family="'OpenSans'" font-size="8" letter-spacing="5"> </tspan><tspan x="121.1" y="0" fill="#4D4D4D" font-family="'OpenSans'" font-size="8">consectetur </tspan><tspan x="0" y="9.6" fill="#4D4D4D" font-family="'OpenSans'" font-size="8">adipiscing</tspan><tspan x="32.883" y="9.6" fill="#4D4D4D" font-family="'OpenSans'" font-size="8"> </tspan><tspan x="34.809" y="9.6" fill="#4D4D4D" font-family="'OpenSans'" font-size="8">elit,</tspan><tspan x="47.027" y="9.6" fill="#4D4D4D" font-family="'OpenSans'" font-size="8"> </tspan><tspan x="48.951" y="9.6" fill="#4D4D4D" font-family="'OpenSans'" font-size="8">sed</tspan><tspan x="59.615" y="9.6" fill="#4D4D4D" font-family="'OpenSans'" font-size="8"> </tspan><tspan x="61.54" y="9.6" fill="#4D4D4D" font-family="'OpenSans'" font-size="8">do</tspan><tspan x="69.54" y="9.6" fill="#4D4D4D" font-family="'OpenSans'" font-size="8"> </tspan><tspan x="71.465" y="9.6" fill="#4D4D4D" font-family="'OpenSans'" font-size="8">eiusmod</tspan><tspan x="98.574" y="9.6" fill="#4D4D4D" font-family="'OpenSans'" font-size="8"> </tspan><tspan x="100.498" y="9.6" fill="#4D4D4D" font-family="'OpenSans'" font-size="8">tempor</tspan><tspan x="123.158" y="9.6" fill="#4D4D4D" font-family="'OpenSans'" font-size="8"> </tspan><tspan x="125.084" y="9.6" fill="#4D4D4D" font-family="'OpenSans'" font-size="8">incididunt </tspan><tspan x="0" y="20.4" fill="#4D4D4D" font-family="'OpenSans'" font-size="8">ut labore et dolore magna aliqua</tspan><tspan x="103.293" y="20.4" fill="#4D4D4D" font-family="'OpenSans'" font-size="9">.  </tspan></text>
	<g>
		<circle fill="#F0E23D" cx="260.354" cy="442.799" r="26.916"/>
		<circle fill="#E0B605" cx="260.354" cy="442.799" r="21.74"/>
		<text transform="matrix(1 0 0 1 246.8774 445.1992)" fill="#FFFFFF" font-family="'Milkshake'" font-size="13.7308">2.50</text>
	</g>
	<g>
		<circle fill="#F0E23D" cx="260.354" cy="532.821" r="26.916"/>
		<circle fill="#E0B605" cx="260.354" cy="532.821" r="21.74"/>
		<text transform="matrix(1 0 0 1 246.8774 535.2207)" fill="#FFFFFF" font-family="'Milkshake'" font-size="13.7308">2.50</text>
	</g>
	<g>
		<circle fill="#F0E23D" cx="260.354" cy="622.843" r="26.916"/>
		<circle fill="#E0B605" cx="260.354" cy="622.843" r="21.74"/>
		<text transform="matrix(1 0 0 1 246.8774 625.2432)" fill="#FFFFFF" font-family="'Milkshake'" font-size="13.7308">2.50</text>
	</g>
	<g>
		<circle fill="#F0E23D" cx="536.393" cy="445.199" r="26.916"/>
		<circle fill="#E0B605" cx="536.393" cy="445.199" r="21.74"/>
		<text transform="matrix(1 0 0 1 522.9155 447.5996)" fill="#FFFFFF" font-family="'Milkshake'" font-size="13.7308">2.50</text>
	</g>
	<g>
		<circle fill="#F0E23D" cx="536.393" cy="532.821" r="26.916"/>
		<circle fill="#E0B605" cx="536.393" cy="532.821" r="21.74"/>
		<text transform="matrix(1 0 0 1 522.9155 535.2207)" fill="#FFFFFF" font-family="'Milkshake'" font-size="13.7308">2.50</text>
	</g>
	<g>
		<circle fill="#F0E23D" cx="536.393" cy="622.843" r="26.916"/>
		<circle fill="#E0B605" cx="536.393" cy="622.843" r="21.74"/>
		<text transform="matrix(1 0 0 1 522.9155 625.2432)" fill="#FFFFFF" font-family="'Milkshake'" font-size="13.7308">2.50</text>
	</g>
</g>
</svg>
